<svg xmlns="http://www.w3.org/2000/svg" viewBox="0 0 453.54 127.56"><defs><style>.cls-1,.cls-9{fill:#575756;}.cls-2{fill:#e84e0f;}.cls-3{fill:#f59c00;}.cls-4{fill:#b23f06;}.cls-5{fill:#758d9a;}.cls-6{fill:#f9b000;}.cls-7{fill:#ea5178;}.cls-8{fill:#ec6608;}.cls-9{font-size:24px;font-family:GillSansMT-Bold, Gill Sans MT;font-weight:700;}</style></defs><title>CoulCmjn300dpi</title><g id="DocumentOfficielNePasModifierSVP"><path class="cls-1" d="M341.39,81.42A19.51,19.51,0,1,1,360.9,61.91a19.53,19.53,0,0,1-19.51,19.51Zm0-37.5a18,18,0,1,0,18,18,18,18,0,0,0-18-18Z"/><path class="cls-2" d="M341.39,84.33a22.42,22.42,0,1,1,22.43-22.42,22.45,22.45,0,0,1-22.43,22.42Zm0-44A21.62,21.62,0,1,0,363,61.91a21.64,21.64,0,0,0-21.62-21.62Z"/><path class="cls-3" d="M341.39,90.25a28.34,28.34,0,1,1,28.34-28.34,28.37,28.37,0,0,1-28.34,28.34Zm0-52.64a24.3,24.3,0,1,0,24.3,24.3,24.33,24.33,0,0,0-24.3-24.3Z"/><path class="cls-4" d="M342.46,92.9A33.52,33.52,0,1,1,376,59.37,33.57,33.57,0,0,1,342.46,92.9Zm0-65.53a32,32,0,1,0,32,32,32,32,0,0,0-32-32Z"/><path class="cls-5" d="M342.9,95.34A36.37,36.37,0,1,1,379.28,59,36.41,36.41,0,0,1,342.9,95.34Zm0-71.22A34.86,34.86,0,1,0,377.76,59,34.89,34.89,0,0,0,342.9,24.12Z"/><path class="cls-6" d="M338.29,105.22A44.62,44.62,0,1,1,382.9,60.6a44.67,44.67,0,0,1-44.61,44.62Zm0-87.22a42.61,42.61,0,1,0,42.59,42.6A42.65,42.65,0,0,0,338.29,18Z"/><path class="cls-7" d="M346.24,117.68a44.39,44.39,0,1,1,44.38-44.39,44.43,44.43,0,0,1-44.38,44.39Zm0-88a43.58,43.58,0,1,0,43.57,43.57,43.63,43.63,0,0,0-43.57-43.57Z"/><path class="cls-8" d="M349.84,104.64c-27.9,0-50.59-22.24-50.59-49.58S321.94,5.5,349.84,5.5s50.58,22.23,50.58,49.56-22.69,49.58-50.58,49.58Zm0-98.33c-27.45,0-49.78,21.87-49.78,48.75s22.33,48.77,49.78,48.77S399.61,82,399.61,55.06,377.28,6.31,349.84,6.31Z"/><path class="cls-1" d="M12.1,70.06c-3.54,0-6.35-2.39-6.35-6V52.66H9.12V63.88a2.86,2.86,0,0,0,3,3.18,2.87,2.87,0,0,0,3-3.18V52.66h3.35V64C18.45,67.67,15.64,70.06,12.1,70.06Z"/><path class="cls-1" d="M29.3,69.92V62.29a2.11,2.11,0,1,0-4.19,0v7.63H22V57.29H25v1.17a4.29,4.29,0,0,1,3.15-1.31,4.1,4.1,0,0,1,3,1.11,4.68,4.68,0,0,1,1.28,3.59v8.07Z"/><path class="cls-1" d="M35.8,55.14V52.57H39v2.57Zm.05,14.78V57.29H39V69.92Z"/><path class="cls-1" d="M48,69.92H45.49L40.84,57.29h3.32l2.57,7.81,2.54-7.81h3.32Z"/><path class="cls-1" d="M56.69,64.59a2.61,2.61,0,0,0,2.76,2.81,3.5,3.5,0,0,0,2.86-1.19l1.92,1.87a6,6,0,0,1-4.8,2c-3,0-5.84-1.35-5.84-6.47,0-4.12,2.23-6.44,5.5-6.44,3.51,0,5.5,2.57,5.5,6v1.41Zm4.51-3.52a2.35,2.35,0,0,0-4.22,0,3.52,3.52,0,0,0-.29,1.36h4.8A3.71,3.71,0,0,0,61.2,61.07Z"/><path class="cls-1" d="M74.36,60.73A2.13,2.13,0,0,0,72.68,60a2.1,2.1,0,0,0-2,2.33v7.61H67.5V57.29h3.08V58.5a4.27,4.27,0,0,1,3.17-1.35,3.8,3.8,0,0,1,3,1.18Z"/><path class="cls-1" d="M82.43,70.06c-2,0-3.79-.21-5.38-1.81l2.06-2.06a4.57,4.57,0,0,0,3.36,1.18c1.1,0,2.23-.36,2.23-1.3,0-.63-.34-1.07-1.33-1.17l-2-.19c-2.27-.22-3.68-1.21-3.68-3.54,0-2.62,2.3-4,4.87-4a6.68,6.68,0,0,1,4.82,1.48l-1.93,2a4.38,4.38,0,0,0-2.94-.85c-1.26,0-1.79.58-1.79,1.21,0,.46.19,1,1.31,1.09l2,.2c2.49.24,3.75,1.57,3.75,3.71C87.78,68.73,85.41,70.06,82.43,70.06Z"/><path class="cls-1" d="M90.38,55.14V52.57H93.6v2.57Zm0,14.78V57.29h3.16V69.92Z"/><path class="cls-1" d="M101,69.92a3.43,3.43,0,0,1-3.66-3.61V60.06H96.05v-2.4h1.33V53.92h3.15v3.74h2.23v2.4h-2.23v6.06a1,1,0,0,0,1.09,1.14h1.14v2.66Z"/><path class="cls-1" d="M108.09,64.59a2.61,2.61,0,0,0,2.76,2.81,3.48,3.48,0,0,0,2.86-1.19l1.92,1.87a6,6,0,0,1-4.8,2c-3,0-5.84-1.35-5.84-6.47,0-4.12,2.23-6.44,5.5-6.44,3.51,0,5.5,2.57,5.5,6v1.41Zm4.51-3.52a2.35,2.35,0,0,0-4.22,0,3.71,3.71,0,0,0-.29,1.36h4.8A3.52,3.52,0,0,0,112.6,61.07Zm-1.26-5.79h-2.11l1.55-4.12h3.32Z"/><path class="cls-1" d="M130.53,70.06a6.35,6.35,0,0,1-4.65-1.89c-1.75-1.74-1.7-3.9-1.7-6.88s-.05-5.14,1.7-6.88a6.35,6.35,0,0,1,4.65-1.89A6.07,6.07,0,0,1,136.88,58h-3.42a2.85,2.85,0,0,0-2.9-2.45,2.78,2.78,0,0,0-2.16.9c-.65.73-.85,1.55-.85,4.87s.2,4.15.85,4.87a2.78,2.78,0,0,0,2.16.9,2.85,2.85,0,0,0,2.9-2.45h3.42A6.09,6.09,0,0,1,130.53,70.06Z"/><path class="cls-1" d="M143.11,69.92a3.43,3.43,0,0,1-3.68-3.61V52.66h3.15V66.12c0,.75.31,1.14,1.11,1.14h1.21v2.66Z"/><path class="cls-1" d="M153.89,69.92V68.83a3.81,3.81,0,0,1-3.1,1.21,4.3,4.3,0,0,1-3.22-1.11,4.05,4.05,0,0,1-1-2.84c0-2,1.38-3.66,4.31-3.66h3V61.8c0-1.38-.68-2-2.35-2a2.69,2.69,0,0,0-2.42,1l-2-2c1.23-1.35,2.44-1.74,4.55-1.74,3.54,0,5.38,1.5,5.38,4.46v8.31Zm-.07-5.33h-2.49c-1.14,0-1.77.53-1.77,1.43s.58,1.45,1.81,1.45a2.51,2.51,0,0,0,2-.6,2.09,2.09,0,0,0,.46-1.6Z"/><path class="cls-1" d="M167.64,69.92V68.76a4.34,4.34,0,0,1-3.15,1.3,4.14,4.14,0,0,1-3-1.11,4.72,4.72,0,0,1-1.28-3.59V57.29h3.15v7.64a2.1,2.1,0,1,0,4.19,0V57.29h3.15V69.92Z"/><path class="cls-1" d="M181.23,69.92V68.73a3.78,3.78,0,0,1-3.12,1.33A4.49,4.49,0,0,1,175,68.93c-1.26-1.26-1.28-3.45-1.28-5.34s0-4,1.28-5.3a4.39,4.39,0,0,1,3.08-1.14,3.79,3.79,0,0,1,3.08,1.26V52.66h3.15V69.92ZM179,60c-1.89,0-2.13,1.56-2.13,3.61s.24,3.64,2.13,3.64,2.16-1.58,2.16-3.64S180.89,60,179,60Z"/><path class="cls-1" d="M190.32,64.59a2.61,2.61,0,0,0,2.76,2.81,3.5,3.5,0,0,0,2.86-1.19l1.92,1.87a6,6,0,0,1-4.8,2c-3,0-5.84-1.35-5.84-6.47,0-4.12,2.23-6.44,5.5-6.44,3.51,0,5.5,2.57,5.5,6v1.41Zm4.51-3.52a2.35,2.35,0,0,0-4.22,0,3.52,3.52,0,0,0-.29,1.36h4.8A3.71,3.71,0,0,0,194.83,61.07Z"/><path class="cls-1" d="M214.22,69.92H207V52.66h6.93c3.37,0,5.34,1.89,5.34,4.85a4,4,0,0,1-2.14,3.56A4,4,0,0,1,219.5,65C219.5,68.17,217.29,69.92,214.22,69.92Zm-.56-14.25h-3.3v4h3.3a2,2,0,1,0,0-4Zm.22,7h-3.52v4.24h3.52a2.12,2.12,0,1,0,0-4.24Z"/><path class="cls-1" d="M225.17,64.59a2.61,2.61,0,0,0,2.76,2.81,3.5,3.5,0,0,0,2.86-1.19l1.92,1.87a6,6,0,0,1-4.8,2c-3,0-5.84-1.35-5.84-6.47,0-4.12,2.23-6.44,5.5-6.44,3.51,0,5.5,2.57,5.5,6v1.41Zm4.51-3.52a2.35,2.35,0,0,0-4.22,0,3.52,3.52,0,0,0-.29,1.36H230A3.71,3.71,0,0,0,229.68,61.07Z"/><path class="cls-1" d="M242.84,60.73a2.13,2.13,0,0,0-1.68-.75,2.1,2.1,0,0,0-2,2.33v7.61H236V57.29h3.08V58.5a4.27,4.27,0,0,1,3.17-1.35,3.8,3.8,0,0,1,3,1.18Z"/><path class="cls-1" d="M254.35,69.92V62.29a2.11,2.11,0,1,0-4.19,0v7.63H247V57.29h3.08v1.17a4.31,4.31,0,0,1,3.15-1.31,4.1,4.1,0,0,1,3,1.11,4.69,4.69,0,0,1,1.29,3.59v8.07Z"/><path class="cls-1" d="M267.36,69.92V68.83a3.83,3.83,0,0,1-3.1,1.21A4.3,4.3,0,0,1,261,68.93a4.05,4.05,0,0,1-1-2.84c0-2,1.38-3.66,4.31-3.66h3V61.8c0-1.38-.68-2-2.35-2a2.69,2.69,0,0,0-2.42,1l-2-2c1.24-1.35,2.45-1.74,4.56-1.74,3.54,0,5.38,1.5,5.38,4.46v8.31Zm-.07-5.33h-2.5c-1.14,0-1.77.53-1.77,1.43s.59,1.45,1.82,1.45a2.52,2.52,0,0,0,2-.6,2.09,2.09,0,0,0,.46-1.6Z"/><path class="cls-1" d="M280.69,60.73A2.11,2.11,0,0,0,277,62.31v7.61h-3.15V57.29h3.08V58.5a4.31,4.31,0,0,1,3.18-1.35,3.83,3.83,0,0,1,3,1.18Z"/><path class="cls-1" d="M291.09,69.92V68.73A3.78,3.78,0,0,1,288,70.06a4.47,4.47,0,0,1-3.1-1.13c-1.26-1.26-1.28-3.45-1.28-5.34s0-4,1.28-5.3a4.36,4.36,0,0,1,3.08-1.14A3.8,3.8,0,0,1,291,58.41V52.66h3.15V69.92ZM288.86,60c-1.89,0-2.13,1.56-2.13,3.61s.24,3.64,2.13,3.64S291,65.65,291,63.59,290.75,60,288.86,60Z"/><path class="cls-1" d="M384.52,69.92V52.66h3.37V66.91h7.83v3Z"/><path class="cls-1" d="M401.46,72a4.53,4.53,0,0,1-.95,1.62,3.64,3.64,0,0,1-2.71,1h-1.24V71.71h.73a1.36,1.36,0,0,0,1.57-1.14L399.4,69l-4.32-11.73h3.32L401,65.1l2.52-7.81h3.32Z"/><path class="cls-1" d="M417.21,68.52a5.26,5.26,0,0,1-3.93,1.54,5.2,5.2,0,0,1-3.9-1.54c-1.14-1.19-1.43-2.62-1.43-4.93s.29-3.7,1.43-4.89a5.17,5.17,0,0,1,3.9-1.55,5.22,5.22,0,0,1,3.93,1.55c1.14,1.19,1.43,2.62,1.43,4.89S418.35,67.33,417.21,68.52Zm-2.45-8a2,2,0,0,0-1.48-.56,1.93,1.93,0,0,0-1.45.56c-.66.65-.73,1.75-.73,3.05s.07,2.43.73,3.08a1.9,1.9,0,0,0,1.45.56,2,2,0,0,0,1.48-.56c.66-.65.73-1.77.73-3.08S415.42,61.19,414.76,60.54Z"/><path class="cls-1" d="M429,69.92V62.29a2.11,2.11,0,1,0-4.19,0v7.63h-3.15V57.29h3.07v1.17a4.31,4.31,0,0,1,3.15-1.31,4.14,4.14,0,0,1,3,1.11,4.72,4.72,0,0,1,1.28,3.59v8.07Z"/><path class="cls-1" d="M335.18,56.14v7h0a2,2,0,1,1-4,0h0V56.75H327.8v6.41a5.37,5.37,0,1,0,10.74,0v-7Z"/><polygon class="cls-1" points="343.44 69.69 343.44 60.32 340.01 60.32 340.01 72.93 348.11 72.93 348.11 69.69 343.44 69.69"/><path class="cls-1" d="M352.56,61.7a3.14,3.14,0,0,0-2-5.54H345v12h5.72a3.48,3.48,0,0,0,1.8-6.47Zm-3.27-2.92a.94.94,0,0,1,1,.91.93.93,0,0,1-1,.88h-.94V58.78Zm.15,6.48h-1.13V63.54h1.14a.88.88,0,0,1,.92.86A.87.87,0,0,1,349.44,65.26Z"/><path class="cls-1" d="M341.05,58.54a2.4,2.4,0,0,1,0-4.79,2.46,2.46,0,0,1,1.24.35l1.81-3a5.8,5.8,0,0,0-3.05-.86,5.88,5.88,0,1,0,5.89,5.89h-3.49A2.39,2.39,0,0,1,341.05,58.54Z"/><text class="cls-9" transform="translate(435.74 70.55)">5</text></g></svg>