<svg xmlns="http://www.w3.org/2000/svg" viewBox="0 0 131.29 20.15">
  <title>Fichier 2</title>
  <g id="Calque_2" data-name="Calque 2">
    <g id="DocumentOfficielNePasModifierSVP">
      <path d="M48.31,17.49a1.64,1.64,0,0,1-.26,1,.91.91,0,0,1-1.39,0,1.54,1.54,0,0,1-.27-1V12.35H45v5.14a2.49,2.49,0,0,0,.68,1.86,2.47,2.47,0,0,0,3.36,0,2.48,2.48,0,0,0,.67-1.86V12.35H48.31Z" fill="hsl(0, 4%, 5%)"/>
      <polygon points="54.53 17.16 54.5 17.17 52.31 12.36 50.91 12.36 50.91 19.9 52.31 19.9 52.31 15.08 52.34 15.07 54.53 19.9 55.92 19.9 55.92 12.36 54.53 12.36 54.53 17.16" fill="hsl(0, 4%, 5%)"/>
      <rect x="57.33" y="12.35" width="1.39" height="7.54" fill="hsl(0, 4%, 5%)"/>
      <polygon points="63.1 19.9 65.1 12.36 63.63 12.36 62.44 17.99 62.38 18.26 62.35 18.26 62.3 17.97 61.11 12.36 59.64 12.36 61.65 19.9 63.1 19.9" fill="hsl(0, 4%, 5%)"/>
      <polygon points="70.18 18.72 67.35 18.72 67.35 16.59 69.75 16.59 69.75 15.41 67.35 15.41 67.35 13.53 70.17 13.53 70.17 12.36 65.95 12.36 65.95 19.9 70.18 19.9 70.18 18.72" fill="hsl(0, 4%, 5%)"/>
      <path d="M74.29,17.21a1.47,1.47,0,0,1,.22.87v.52a6.33,6.33,0,0,0,0,.76.85.85,0,0,0,.22.54h1.44v-.11a1,1,0,0,1-.24-.52,3.16,3.16,0,0,1-.07-.66v-.54a2.46,2.46,0,0,0-.24-1.14,1.39,1.39,0,0,0-.8-.65,1.75,1.75,0,0,0,.74-.68,2.05,2.05,0,0,0,.25-1A2.15,2.15,0,0,0,75.25,13a2.27,2.27,0,0,0-1.66-.59H71.26V19.9h1.39v-3h1a.7.7,0,0,1,.62.31m-.7-1.49h-.94V13.53h.94a.77.77,0,0,1,.65.31,1.36,1.36,0,0,1,.22.83,1.21,1.21,0,0,1-.22.78.8.8,0,0,1-.65.27" fill="hsl(0, 4%, 5%)"/>
      <path d="M79.66,15.49a3.35,3.35,0,0,1-.9-.53.79.79,0,0,1-.26-.62,1,1,0,0,1,.23-.67.93.93,0,0,1,1.35.06,1.35,1.35,0,0,1,.24.84h1.36v0a2.13,2.13,0,0,0-.62-1.64,2.19,2.19,0,0,0-1.66-.65,2.37,2.37,0,0,0-1.66.58,1.94,1.94,0,0,0-.65,1.51,1.92,1.92,0,0,0,.56,1.46,5,5,0,0,0,1.67.93,2.17,2.17,0,0,1,.77.5,1.06,1.06,0,0,1,.21.7,1,1,0,0,1-.21.67.8.8,0,0,1-.66.25,1.13,1.13,0,0,1-.85-.3,1.52,1.52,0,0,1-.28-1H77v0a2.18,2.18,0,0,0,.73,1.81,2.66,2.66,0,0,0,1.77.62,2.37,2.37,0,0,0,1.65-.55,2,2,0,0,0,.62-1.53,2.17,2.17,0,0,0-.51-1.51,4,4,0,0,0-1.54-.92" fill="hsl(0, 4%, 5%)"/>
      <rect x="82.91" y="12.35" width="1.39" height="7.54" fill="hsl(0, 4%, 5%)"/>
      <polygon points="85.18 13.53 86.78 13.53 86.78 19.9 88.18 19.9 88.18 13.53 89.79 13.53 89.79 12.36 85.18 12.36 85.18 13.53" fill="hsl(0, 4%, 5%)"/>
      <polygon points="94.35 10.47 94.33 10.44 92.86 10.44 92 11.81 93.12 11.81 94.35 10.47" fill="hsl(0, 4%, 5%)"/>
      <polygon points="92.12 18.72 92.12 16.59 94.53 16.59 94.53 15.41 92.12 15.41 92.12 13.53 94.94 13.53 94.94 12.36 90.72 12.36 90.72 19.9 94.95 19.9 94.95 18.72 92.12 18.72" fill="hsl(0, 4%, 5%)"/>
      <path d="M100.42,12.36H98.23V20h2.19a2.27,2.27,0,0,0,1.84-.88,3.45,3.45,0,0,0,.73-2.28V15.52a3.45,3.45,0,0,0-.73-2.28,2.27,2.27,0,0,0-1.84-.88m1.15,4.43a2.74,2.74,0,0,1-.32,1.44,1,1,0,0,1-.91.54h-.69V13.54h.69a1,1,0,0,1,.91.54,2.69,2.69,0,0,1,.32,1.42Z" fill="hsl(0, 4%, 5%)"/>
      <polygon points="104.83 16.58 107.24 16.58 107.24 15.41 104.83 15.41 104.83 13.53 107.65 13.53 107.65 12.36 103.42 12.36 103.42 19.89 107.66 19.89 107.66 18.71 104.83 18.71 104.83 16.58" fill="hsl(0, 4%, 5%)"/>
      <polygon points="112.44 12.36 111.03 12.36 111.03 19.89 114.88 19.89 114.88 18.71 112.44 18.71 112.44 12.36" fill="hsl(0, 4%, 5%)"/>
      <polygon points="116.94 15.58 116.91 15.58 115.72 12.36 114.19 12.36 116.21 17.11 116.21 19.89 117.61 19.89 117.61 17.2 119.66 12.36 118.14 12.36 116.94 15.58" fill="hsl(0, 4%, 5%)"/>
      <path d="M122.53,12.25a2.29,2.29,0,0,0-1.81.75,2.94,2.94,0,0,0-.68,2.07v2.11a2.94,2.94,0,0,0,.68,2.07,2.61,2.61,0,0,0,3.64,0,2.94,2.94,0,0,0,.69-2.07V15.07a2.94,2.94,0,0,0-.69-2.07,2.33,2.33,0,0,0-1.83-.75m1.12,4.93a2.17,2.17,0,0,1-.28,1.23,1,1,0,0,1-.83.41,1,1,0,0,1-.83-.41,2.17,2.17,0,0,1-.28-1.23V15.05a2.23,2.23,0,0,1,.27-1.22.92.92,0,0,1,.83-.41,1,1,0,0,1,.84.41,2.16,2.16,0,0,1,.28,1.22Z" fill="hsl(0, 4%, 5%)"/>
      <polygon points="129.9 17.15 129.87 17.16 127.67 12.35 126.27 12.35 126.27 19.89 127.67 19.89 127.67 15.08 127.7 15.07 129.9 19.89 131.29 19.89 131.29 12.35 129.9 12.35 129.9 17.15" fill="hsl(0, 4%, 5%)"/>
      <path d="M40.71,5.46a1.53,1.53,0,0,0-.17-.22c-.11-.13-.4-.3-.54-.44s-.3-.36-.37-.41-.25-.32-.32-.38-.18-.47-.19-.52A.34.34,0,0,0,39,3.25,2.88,2.88,0,0,1,38.56,3c-.12-.1-.44-.41-.44-.41a4.11,4.11,0,0,0-.2-.79c-.13-.27-.18-.38-.24-.48A.73.73,0,0,1,37.56,1a.53.53,0,0,0-.33.09S36.9.87,36.57.67a4.51,4.51,0,0,0-.88-.43A1.2,1.2,0,0,1,35.24,0a2.49,2.49,0,0,0-.42,0L34,.12,33,.26a5.26,5.26,0,0,0-.77.12,3.07,3.07,0,0,0-.45.11,3.32,3.32,0,0,1-.74.22c-.27,0-.56,0-.9.09-.15,0-.71.25-1,.31l-.28,0s.05.19.2.22a.62.62,0,0,1-.26.26,5.43,5.43,0,0,1-.62.27,3.84,3.84,0,0,0-.76.32.66.66,0,0,0,.24.25s0,0-.18.13-.71.32-.94.42-.54.29-.69.37l-.45.24c-.21.13-.1.12-.1.12l.25,0a.46.46,0,0,1,.23.07.22.22,0,0,1-.09.17,3.53,3.53,0,0,1-.61.53c-.17.12-.32.26-.52.39s-.38.37-.45.41l.2.19,0,.14L24,5.87a14.52,14.52,0,0,1-3.12.24c-2.64,0-3.37-.38-4.72-.44a9.57,9.57,0,0,0-3.58.61A3.42,3.42,0,0,0,12,6.5a9.5,9.5,0,0,0-1.52.44c-1.72.65-4.71,3.13-5.54,3.48a3.15,3.15,0,0,1-1.88.29,2.09,2.09,0,0,1-.82-.22A3,3,0,0,0,1.6,9.6,8.39,8.39,0,0,0,.05,8.88a2,2,0,0,0,.2,1.42c.47.84,1.39.78,1.72.92a4.72,4.72,0,0,0,3.17,0A23.1,23.1,0,0,0,8,9.7a9.15,9.15,0,0,1,3-.91c0,.18-.1.35-.15.51a19.34,19.34,0,0,1-1.57,3A18.91,18.91,0,0,1,7.9,14.05a2.68,2.68,0,0,1-1.12.42c-.58.11-2.25.27-2.25.27a16.37,16.37,0,0,1-.66,2.4c-.15.37-.51,1.11-.51,1.11a3.23,3.23,0,0,1,.83,1.31,2.24,2.24,0,0,0,.39.59l.31-.06h35c.06-.21.16-.68-.25-.87s-.1-.45-1.32-.92a5.14,5.14,0,0,1-1.14-.48c-.19-.16-1.25-1.64-1.78-2.26s-1.61-2.06-1.61-2.06l-.23-.57,0-.43a1.34,1.34,0,0,0,.2-.21,5.13,5.13,0,0,0,.57-.68c.2-.41.13,0,.25-.23a2,2,0,0,1,.61-.47,2.54,2.54,0,0,0,.37-.36,1,1,0,0,0,.06.32,2.49,2.49,0,0,0,.28-.29,3,3,0,0,1,.31-.44,3.37,3.37,0,0,0,.49-.87,3.69,3.69,0,0,1,.24-.4l.15.36A1.1,1.1,0,0,0,37.31,9a2.63,2.63,0,0,1,.18-.45c.1-.15.17-.34.26-.38A1.28,1.28,0,0,1,38.21,8a2.06,2.06,0,0,1,.5.11c.16,0,.24,0,.36.11a.87.87,0,0,0,.26.23s0,0,.14-.09a1.48,1.48,0,0,0,.27-.16c.13-.1.11-.14.2-.23a.62.62,0,0,0,.21-.37c.05-.17,0-.27.05-.35s.25-.08.33-.28.06-.22.09-.26a.51.51,0,0,0,.05-.17s.24-.19.27-.35a.42.42,0,0,1,.14-.29.8.8,0,0,0-.37-.42m-18.38,9c.24.11.86.38,1.53.63a2,2,0,0,1,.09.78,4.6,4.6,0,0,1-.93,2,12,12,0,0,0,.57,1.24,6.33,6.33,0,0,1,.66.74,2.21,2.21,0,0,1,.12.27H22a.56.56,0,0,0-.24-.52c-.13-.13-.24-.39-.56-.5-1.11-.39-1.1-.23-1.42-.49a4.51,4.51,0,0,1-.9-.77,6.66,6.66,0,0,1-.35-2.13,11.31,11.31,0,0,0-.08-1.34,7,7,0,0,1,3.89.12M5.86,16.81c.36-.14,1.15.16,1.94,0a20,20,0,0,0,3.51-1.09,11.58,11.58,0,0,0,1.76-1.37,1.53,1.53,0,0,1,.58-.31s.35.37,1,1,1,.91,1.19,1.11a2.61,2.61,0,0,1,.59.78,5.9,5.9,0,0,1,.12,1.66,6.53,6.53,0,0,1,1.45.7,2.79,2.79,0,0,1,.56.78H7.37A.63.63,0,0,0,7,19.34a3.88,3.88,0,0,0-.86-.44.79.79,0,0,1-.52-.53,3.16,3.16,0,0,1-.12-.87s0-.56.36-.69m28,1.06a4.37,4.37,0,0,1,1.41.82c.17.25,1.2.54,1.2.54a1.33,1.33,0,0,1,.73.4c.31.29.41.4.61.46H27.32a.53.53,0,0,0-.22-.6c-.16-.09-.31-.28-.49-.36-.72-.35-.8-.22-1.1-.46s-.29-.68-.29-.68,1.32-1.3,1.57-1.63l.59-.77a8.49,8.49,0,0,0,2.38-.48l.29-.16.3.17c.52.31,1.85.87,2.32,1.25a7.48,7.48,0,0,1,1.14,1.5" fill="hsl(0, 4%, 5%)"/>
    </g>
  </g>
</svg>
