<svg xmlns="http://www.w3.org/2000/svg" viewBox="0 0 58.35 111.67">
  <title>Logo Universite</title>
  <g id="DocumentOfficielNePasModifierSVP">
    <g>
      <path d="M12.68,15a1.57,1.57,0,0,1-.27,1,.8.8,0,0,1-.69.31A.79.79,0,0,1,11,16a1.56,1.56,0,0,1-.27-1V9.86H9.36V15A2.48,2.48,0,0,0,10,16.86a2.25,2.25,0,0,0,1.69.65,2.21,2.21,0,0,0,1.68-.65A2.48,2.48,0,0,0,14.07,15V9.86H12.68Z" transform="translate(-2.71 -7.95)" fill="#fff"/>
      <polygon points="16.19 6.72 16.16 6.73 13.97 1.92 12.56 1.92 12.56 9.46 13.97 9.46 13.97 4.65 13.99 4.64 16.19 9.46 17.58 9.46 17.58 1.92 16.19 1.92 16.19 6.72" fill="#fff"/>
      <rect x="18.99" y="1.92" width="1.39" height="7.54" fill="#fff"/>
      <polygon points="24.75 9.46 26.76 1.92 25.29 1.92 24.09 7.55 24.04 7.82 24.01 7.82 23.95 7.53 22.77 1.92 21.3 1.92 23.3 9.46 24.75 9.46" fill="#fff"/>
      <polygon points="31.83 8.28 29 8.28 29 6.15 31.41 6.15 31.41 4.97 29 4.97 29 3.09 31.82 3.09 31.82 1.92 27.6 1.92 27.6 9.46 31.83 9.46 31.83 8.28" fill="#fff"/>
      <path d="M38.66,14.72a1.45,1.45,0,0,1,.22.87v.52a6.45,6.45,0,0,0,0,.76.9.9,0,0,0,.22.54h1.45V17.3a.87.87,0,0,1-.24-.52,3.23,3.23,0,0,1-.07-.66v-.54A2.32,2.32,0,0,0,40,14.44a1.37,1.37,0,0,0-.79-.65,1.78,1.78,0,0,0,.73-.68,2,2,0,0,0,.25-1,2.17,2.17,0,0,0-.6-1.63A2.23,2.23,0,0,0,38,9.87H35.62v7.54H37v-3h1a.71.71,0,0,1,.63.32M38,13.23H37V11H38a.77.77,0,0,1,.65.31,1.42,1.42,0,0,1,.22.82,1.25,1.25,0,0,1-.22.78.78.78,0,0,1-.65.28" transform="translate(-2.71 -7.95)" fill="#fff"/>
      <path d="M44,13a3.62,3.62,0,0,1-.91-.53.84.84,0,0,1-.26-.62,1,1,0,0,1,.24-.67.8.8,0,0,1,.65-.27.82.82,0,0,1,.69.32,1.34,1.34,0,0,1,.25.85h1.36v0a2.18,2.18,0,0,0-2.29-2.29,2.37,2.37,0,0,0-1.65.59,1.9,1.9,0,0,0-.65,1.51A1.85,1.85,0,0,0,42,13.3a5,5,0,0,0,1.67.94,2.11,2.11,0,0,1,.76.5,1.2,1.2,0,0,1,0,1.37.83.83,0,0,1-.66.25,1.08,1.08,0,0,1-.85-.31,1.44,1.44,0,0,1-.28-1H41.32v0a2.14,2.14,0,0,0,.72,1.8,2.69,2.69,0,0,0,1.78.63A2.4,2.4,0,0,0,45.46,17a2,2,0,0,0,.62-1.53,2.1,2.1,0,0,0-.52-1.51A3.73,3.73,0,0,0,44,13" transform="translate(-2.71 -7.95)" fill="#fff"/>
      <rect x="44.57" y="1.92" width="1.39" height="7.54" fill="#fff"/>
      <polygon points="46.83 3.09 48.44 3.09 48.44 9.46 49.84 9.46 49.84 3.09 51.45 3.09 51.45 1.92 46.83 1.92 46.83 3.09" fill="#fff"/>
      <polygon points="56 0.03 55.99 0 54.52 0 53.65 1.37 54.78 1.38 56 0.03" fill="#fff"/>
      <polygon points="53.78 8.28 53.78 6.15 56.19 6.15 56.19 4.97 53.78 4.97 53.78 3.09 56.6 3.09 56.6 1.92 52.38 1.92 52.38 9.46 56.61 9.46 56.61 8.28 53.78 8.28" fill="#fff"/>
      <path d="M11.52,18.9H9.36v7.55h2.16a2.26,2.26,0,0,0,1.82-.88,3.44,3.44,0,0,0,.72-2.26V22a3.44,3.44,0,0,0-.72-2.26,2.23,2.23,0,0,0-1.82-.88m1.14,4.41a2.79,2.79,0,0,1-.31,1.42,1,1,0,0,1-.91.54h-.68V20.08h.68a1,1,0,0,1,.91.53A2.79,2.79,0,0,1,12.66,22Z" transform="translate(-2.71 -7.95)" fill="#fff"/>
      <polygon points="13.96 15.19 16.37 15.19 16.37 14.01 13.96 14.01 13.96 12.13 16.78 12.13 16.78 10.96 12.56 10.96 12.56 18.5 16.8 18.5 16.8 17.32 13.96 17.32 13.96 15.19" fill="#fff"/>
      <polygon points="21.56 10.96 20.16 10.96 20.16 18.5 24 18.5 24 17.32 21.56 17.32 21.56 10.96" fill="#fff"/>
      <polygon points="26.05 14.19 26.02 14.19 24.84 10.96 23.31 10.96 25.32 15.72 25.32 18.5 26.72 18.5 26.72 15.81 28.76 10.96 27.24 10.96 26.05 14.19" fill="#fff"/>
      <path d="M34.34,18.79a2.3,2.3,0,0,0-1.81.76,3,3,0,0,0-.68,2.07v2.12a3,3,0,0,0,.68,2.07,2.61,2.61,0,0,0,3.64,0,3,3,0,0,0,.68-2.07V21.62a2.94,2.94,0,0,0-.69-2.07,2.32,2.32,0,0,0-1.82-.76m1.12,4.95A2.28,2.28,0,0,1,35.18,25a1,1,0,0,1-.83.41,1,1,0,0,1-.83-.41,2.2,2.2,0,0,1-.28-1.23V21.6a2.14,2.14,0,0,1,.28-1.22.91.91,0,0,1,.82-.41,1,1,0,0,1,.84.41,2.24,2.24,0,0,1,.28,1.22Z" transform="translate(-2.71 -7.95)" fill="#fff"/>
      <polygon points="38.98 15.76 38.95 15.77 36.76 10.96 35.36 10.96 35.36 18.5 36.76 18.5 36.76 13.69 36.79 13.68 38.98 18.5 40.37 18.5 40.37 10.96 38.98 10.96 38.98 15.76" fill="#fff"/>
      <path d="M55.46,78.45c0,7,0,16.11,0,16.19a21.11,21.11,0,0,1-21.09,21.09h-.25A21.11,21.11,0,0,1,13,94.64c0-.08,0-9.18,0-16.19H9.12c0,7,0,16.1,0,16.2a25,25,0,0,0,25,25h.27a25,25,0,0,0,25-25c0-.1,0-9.18,0-16.2Z" transform="translate(-2.71 -7.95)" fill="#fff"/>
      <path d="M47.68,78.45c0,7.06,0,16.15,0,16.18a13.3,13.3,0,0,1-13.29,13.3H34.1a13.31,13.31,0,0,1-13.3-13.3s0-9.13,0-16.18H16.88V94.63a17.25,17.25,0,0,0,17.22,17.22h.25A17.24,17.24,0,0,0,51.57,94.63s0-1.67,0-4.09V78.45Z" transform="translate(-2.71 -7.95)" fill="#fff"/>
      <path d="M39.84,78.45c0,7.18,0,16,0,16.06a5.62,5.62,0,0,1-5.57,5.6H34.2a5.61,5.61,0,0,1-5.56-5.6s0-8.88,0-16.06H24.71c0,7.18,0,16,0,16.06A9.53,9.53,0,0,0,34.23,104h0a9.54,9.54,0,0,0,9.51-9.52s0-8.88,0-16.06Z" transform="translate(-2.71 -7.95)" fill="#fff"/>
      <rect x="6.51" y="62.78" width="50.14" height="3.86" fill="#fff"/>
      <rect x="6.51" y="55.05" width="50.14" height="3.87" fill="#fff"/>
      <path d="M60.54,34.49a1.52,1.52,0,0,0-.25-.32c-.16-.19-.56-.43-.76-.62S59.11,33,59,33s-.35-.45-.45-.53-.25-.68-.27-.75a.49.49,0,0,0-.24-.34,3.09,3.09,0,0,1-.55-.37c-.18-.14-.63-.58-.63-.58a6.2,6.2,0,0,0-.29-1.12,7.49,7.49,0,0,0-.33-.68,1,1,0,0,1-.17-.41.91.91,0,0,0-.47.13s-.47-.35-.94-.63a6.19,6.19,0,0,0-1.25-.61,1.56,1.56,0,0,1-.64-.34,2.92,2.92,0,0,0-.6,0L51,26.9c-.34.05-1.17.19-1.36.2a8.35,8.35,0,0,0-1.1.17,6.33,6.33,0,0,0-.64.15,4.51,4.51,0,0,1-1,.31c-.4.05-.81.05-1.28.13-.21,0-1,.36-1.39.44a2.47,2.47,0,0,1-.4.07s.07.27.28.32a.86.86,0,0,1-.37.37,8.68,8.68,0,0,1-.88.37,7,7,0,0,0-1.08.47.94.94,0,0,0,.34.35s0,0-.25.18-1,.46-1.33.6-.78.41-1,.52-.34.17-.64.35-.14.17-.14.17a3.37,3.37,0,0,0,.35,0,.63.63,0,0,1,.33.1s0,.11-.13.24a5.51,5.51,0,0,1-.86.76c-.25.17-.46.36-.73.55s-.56.52-.66.59l.3.26,0,.2a2.62,2.62,0,0,1-.48.25,20.89,20.89,0,0,1-4.43.33c-3.75,0-4.79-.53-6.7-.62a13.8,13.8,0,0,0-5.09.87,4.31,4.31,0,0,0-.82.31,14.11,14.11,0,0,0-2.16.62c-2.43.93-6.68,4.45-7.87,5a4.45,4.45,0,0,1-2.67.41,2.92,2.92,0,0,1-1.15-.31A4.24,4.24,0,0,0,5,40.36a11.49,11.49,0,0,0-2.2-1,2.92,2.92,0,0,0,.28,2c.67,1.18,2,1.11,2.45,1.3a6.67,6.67,0,0,0,4.5.07,37.24,37.24,0,0,0,4.11-2.22,12.86,12.86,0,0,1,4.28-1.3c-.07.26-.14.51-.22.73A28,28,0,0,1,16,44.26a28.92,28.92,0,0,1-2,2.43,4,4,0,0,1-1.6.59c-.82.15-3.19.39-3.19.39a24.47,24.47,0,0,1-.94,3.41c-.21.52-.72,1.57-.72,1.57a4.53,4.53,0,0,1,1.17,1.86,3.22,3.22,0,0,0,.55.84V59h0v.11H59.35V55.26h0c.1-.29.23-1-.35-1.23-.75-.36-.14-.64-1.88-1.3A7.69,7.69,0,0,1,55.51,52c-.28-.22-1.78-2.33-2.53-3.21S50.7,45.9,50.7,45.9l-.34-.8.06-.61c.1-.1.2-.2.29-.31a6.26,6.26,0,0,0,.8-1c.29-.58.19,0,.36-.32a2.91,2.91,0,0,1,.86-.66,3.2,3.2,0,0,0,.53-.52,1.82,1.82,0,0,0,.09.46,3.87,3.87,0,0,0,.39-.42c.24-.29.16-.32.45-.62a5,5,0,0,0,.69-1.24,3.61,3.61,0,0,1,.35-.56l.2.51a1.53,1.53,0,0,0,.27-.37,4.2,4.2,0,0,1,.27-.64c.13-.21.23-.49.36-.54a1.93,1.93,0,0,1,.66-.23,3.08,3.08,0,0,1,.71.16c.23.05.34-.06.5.16a1.23,1.23,0,0,0,.38.32s0,0,.19-.13a1.9,1.9,0,0,0,.39-.23c.18-.13.15-.19.29-.32a.92.92,0,0,0,.29-.52c.07-.24,0-.39.07-.5s.35-.12.47-.4.08-.32.13-.37.08-.24.08-.24.33-.27.37-.5a.72.72,0,0,1,.2-.41,1.16,1.16,0,0,0-.52-.59M34.42,47.26c.35.17,1.23.54,2.18.9a2.77,2.77,0,0,1,.13,1.11,6.49,6.49,0,0,1-1.32,2.79,17.33,17.33,0,0,0,.81,1.77,7.74,7.74,0,0,1,.93,1.05c.06.11.13.26.18.38H33.94a.78.78,0,0,0-.33-.74,1.89,1.89,0,0,0-.8-.7c-1.58-.57-1.56-.34-2-.7A6.8,6.8,0,0,1,29.52,52a9.21,9.21,0,0,1-.5-3,18,18,0,0,0-.11-1.92c1.46-.25,3.76-.61,5.51.17M11,50.61c.51-.21,1.64.22,2.76,0a27.94,27.94,0,0,0,5-1.54,15.87,15.87,0,0,0,2.5-2,2.27,2.27,0,0,1,.83-.44s.5.53,1.5,1.41,1.34,1.3,1.69,1.59a3.43,3.43,0,0,1,.83,1.11,8.3,8.3,0,0,1,.17,2.35,9.45,9.45,0,0,1,2.06,1,4.05,4.05,0,0,1,.8,1.1h-16a.91.91,0,0,0-.52-1.06,5.65,5.65,0,0,0-1.22-.63,1.07,1.07,0,0,1-.74-.74,4.35,4.35,0,0,1-.18-1.24s.08-.8.51-1m39.7,1.51a6.18,6.18,0,0,1,2,1.15,5.24,5.24,0,0,0,1.72.77,1.92,1.92,0,0,1,1,.57c.44.41.58.57.86.65H41.51a.75.75,0,0,0-.3-.85c-.23-.13-.44-.39-.71-.52-1-.48-1.13-.31-1.56-.65-.24-.18-.4-1-.4-1s1.87-1.84,2.23-2.31.63-.82.83-1.1A11.94,11.94,0,0,0,45,48.19l.4-.23c.16.08.3.17.42.24.75.45,2.65,1.24,3.31,1.77a10.74,10.74,0,0,1,1.61,2.15" transform="translate(-2.71 -7.95)" fill="#fff"/>
    </g>
  </g>
</svg>
