<svg xmlns="http://www.w3.org/2000/svg" viewBox="0 0 240.47 112.38"><defs><style>.cls-1{fill:#fff;}</style></defs><title>Fichier 2</title><g id="Calque_2" data-name="Calque 2"><g id="DocumentOfficielNePasModifierSVP"><path class="cls-1" d="M239.19,37.25v7.66H227V52q6.12-.41,9.79,3a11.36,11.36,0,0,1,3.68,8.69,11.17,11.17,0,0,1-3.74,8.81q-3.75,3.3-10,3.3a18.86,18.86,0,0,1-9.22-2V66.86a16.78,16.78,0,0,0,8.1,2.45,6.25,6.25,0,0,0,4.32-1.51,4.87,4.87,0,0,0,1.71-3.8,4.67,4.67,0,0,0-2.08-4,9.8,9.8,0,0,0-5.75-1.47,22.13,22.13,0,0,0-4.34.46V37.25Z"/><path class="cls-1" d="M47.82,76.06A19.55,19.55,0,1,1,67.36,56.52,19.57,19.57,0,0,1,47.82,76.06Zm0-37.57a18,18,0,1,0,18,18,18,18,0,0,0-18-18Z"/><path class="cls-1" d="M47.82,79A22.46,22.46,0,1,1,70.28,56.52,22.48,22.48,0,0,1,47.82,79Zm0-44.11A21.65,21.65,0,1,0,69.47,56.52,21.68,21.68,0,0,0,47.82,34.87Z"/><path class="cls-1" d="M47.82,84.9A28.39,28.39,0,1,1,76.21,56.52,28.42,28.42,0,0,1,47.82,84.9Zm0-52.72A24.34,24.34,0,1,0,72.16,56.52,24.37,24.37,0,0,0,47.82,32.18Z"/><path class="cls-1" d="M48.89,87.55A33.58,33.58,0,1,1,82.46,54,33.62,33.62,0,0,1,48.89,87.55Zm0-65.64A32.07,32.07,0,1,0,80.94,54a32.11,32.11,0,0,0-32-32.07Z"/><path class="cls-1" d="M49.34,90A36.44,36.44,0,1,1,85.77,53.57,36.49,36.49,0,0,1,49.34,90Zm0-71.35A34.92,34.92,0,1,0,84.25,53.57,35,35,0,0,0,49.34,18.66Z"/><path class="cls-1" d="M44.71,99.91A44.7,44.7,0,1,1,89.4,55.21a44.75,44.75,0,0,1-44.69,44.7Zm0-87.38A42.68,42.68,0,1,0,87.38,55.21,42.74,42.74,0,0,0,44.71,12.53Z"/><path class="cls-1" d="M52.68,112.38A44.46,44.46,0,1,1,97.14,67.92a44.51,44.51,0,0,1-44.46,44.46Zm0-88.11A43.65,43.65,0,1,0,96.33,67.92,43.71,43.71,0,0,0,52.68,24.27Z"/><path class="cls-1" d="M56.28,99.33C28.34,99.33,5.6,77.05,5.6,49.66S28.34,0,56.28,0,107,22.28,107,49.66,84.22,99.33,56.28,99.33Zm0-98.52C28.78.81,6.41,22.72,6.41,49.66S28.78,98.52,56.28,98.52s49.87-21.92,49.87-48.86S83.78.81,56.28.81Z"/><path class="cls-1" d="M41.6,50.73v7h0a2,2,0,0,1-4,0h0V51.35H34.2v6.42a5.38,5.38,0,0,0,10.76,0v-7H41.6"/><polyline class="cls-1" points="49.87 64.31 49.87 54.92 46.43 54.92 46.43 67.56 54.55 67.56 54.55 64.31 49.87 64.31"/><path class="cls-1" d="M59,56.31a3.1,3.1,0,0,0,1.12-2.39A3.16,3.16,0,0,0,57,50.75H51.48v12h5.73A3.49,3.49,0,0,0,59,56.31m-3.28-2.93a.94.94,0,0,1,1,.91.92.92,0,0,1-1,.88h-.94V53.38Zm.15,6.5H54.75V58.16h1.14a.86.86,0,0,1,.92.86A.88.88,0,0,1,55.88,59.88Z"/><path class="cls-1" d="M47.48,53.14a2.4,2.4,0,1,1,1.24-4.45l1.82-3a5.83,5.83,0,0,0-3.06-.86,5.89,5.89,0,1,0,5.89,5.89H49.88a2.4,2.4,0,0,1-2.4,2.4"/><polyline class="cls-1" points="97.74 75.83 97.74 37.4 105.24 37.4 105.24 69.14 122.68 69.14 122.68 75.83 97.74 75.83"/><path class="cls-1" d="M135.47,80.37A10.13,10.13,0,0,1,133.36,84a8.12,8.12,0,0,1-6,2.16h-2.76V79.83h1.62c2,0,2.81-.49,3.51-2.54l1.19-3.45-9.61-26.13h7.39l5.84,17.38,5.61-17.38h7.4l-12,32.66"/><path class="cls-1" d="M170.55,72.7a11.65,11.65,0,0,1-8.74,3.46,11.49,11.49,0,0,1-8.69-3.46c-2.54-2.64-3.19-5.83-3.19-11s.65-8.26,3.19-10.91a11.52,11.52,0,0,1,8.69-3.45,11.68,11.68,0,0,1,8.74,3.45c2.54,2.65,3.19,5.83,3.19,10.91s-.65,8.31-3.19,11M165.1,54.94a4.43,4.43,0,0,0-3.29-1.24,4.3,4.3,0,0,0-3.24,1.24c-1.46,1.46-1.62,3.89-1.62,6.81s.16,5.39,1.62,6.85a4.3,4.3,0,0,0,3.24,1.24,4.43,4.43,0,0,0,3.29-1.24c1.46-1.46,1.62-3.94,1.62-6.85S166.56,56.4,165.1,54.94Z"/><path class="cls-1" d="M196.78,75.83v-17c0-3.83-2.43-5.13-4.64-5.13s-4.69,1.3-4.69,5.13v17h-7V47.71h6.86V50.3a9.61,9.61,0,0,1,7-2.91,9.14,9.14,0,0,1,6.64,2.48c2.27,2.27,2.86,4.91,2.86,8v18h-7"/></g></g></svg>