<svg id="Layer_1" data-name="Layer 1" xmlns="http://www.w3.org/2000/svg" viewBox="0 0 2508 1598.85">
  <defs>
    <style>
      .cls-1 {
        fill: #e6e6e6;
      }

      .cls-2 {
        fill: #ddd;
      }

      .cls-3 {
        fill: #ccc;
      }

      .cls-4 {
        fill: #8399a5;
      }

      .cls-5 {
        fill: #b3b3b3;
      }

      .cls-6 {
        fill: #ffd69f;
      }

      .cls-7 {
        fill: #fec220;
      }

      .cls-8 {
        fill: #666;
      }

      .cls-9 {
        fill: #fff;
      }

      .cls-10 {
        fill: #4d4d4d;
      }

      .cls-11 {
        fill: #497185;
      }

      .cls-12 {
        fill: #4c4c4c;
      }

      .cls-13 {
        fill: gray;
      }

      .cls-14 {
        fill: #ef8626;
      }

      .cls-15 {
        fill: #db731d;
      }
    </style>
  </defs>
  <title>construc [Converti]</title>
  <rect class="cls-1" width="2508" height="1542.42"/>
  <g>
    <rect class="cls-2" x="1067.28" y="575.59" width="456.57" height="794.17"/>
    <g>
      <rect class="cls-1" x="1112.47" y="621.94" width="97.34" height="97.34"/>
      <rect class="cls-1" x="1246.89" y="621.94" width="97.34" height="97.34"/>
      <rect class="cls-1" x="1381.31" y="621.94" width="97.34" height="97.34"/>
    </g>
    <g>
      <rect class="cls-1" x="1112.47" y="750.18" width="97.34" height="97.34"/>
      <rect class="cls-1" x="1246.89" y="750.18" width="97.34" height="97.34"/>
      <rect class="cls-1" x="1381.31" y="750.18" width="97.34" height="97.34"/>
    </g>
    <g>
      <rect class="cls-1" x="1112.47" y="878.42" width="97.34" height="97.34"/>
      <rect class="cls-1" x="1246.89" y="878.42" width="97.34" height="97.34"/>
      <rect class="cls-1" x="1381.31" y="878.42" width="97.34" height="97.34"/>
    </g>
    <g>
      <rect class="cls-1" x="1112.47" y="1006.66" width="97.34" height="97.34"/>
      <rect class="cls-1" x="1246.89" y="1006.66" width="97.34" height="97.34"/>
      <rect class="cls-1" x="1381.31" y="1006.66" width="97.34" height="97.34"/>
    </g>
    <g>
      <rect class="cls-1" x="1112.47" y="1134.9" width="97.34" height="97.34"/>
      <rect class="cls-1" x="1246.89" y="1134.9" width="97.34" height="97.34"/>
      <rect class="cls-1" x="1381.31" y="1134.9" width="97.34" height="97.34"/>
    </g>
  </g>
  <g>
    <rect class="cls-3" x="813.46" y="843.57" width="410.27" height="556.23"/>
    <g>
      <rect class="cls-1" x="843.52" y="884.99" width="350.13" height="57.2"/>
      <rect class="cls-1" x="843.52" y="995.44" width="350.13" height="57.2"/>
      <rect class="cls-1" x="843.52" y="1105.9" width="350.13" height="57.2"/>
      <rect class="cls-1" x="843.52" y="1216.36" width="350.13" height="57.2"/>
    </g>
  </g>
  <g>
    <rect class="cls-4" x="1345.81" y="1240.34" width="302.83" height="155.28"/>
    <rect class="cls-4" x="1349.67" y="1078.88" width="302.83" height="155.28"/>
    <rect class="cls-4" x="1349.67" y="917.42" width="302.83" height="155.28"/>
    <rect class="cls-5" x="1319.54" y="873.38" width="35.54" height="539.23"/>
    <rect class="cls-5" x="1639.37" y="873.38" width="35.54" height="539.23"/>
    <rect class="cls-5" x="1477.52" y="1232.23" width="35.54" height="319.06" transform="translate(2887.05 -103.54) rotate(90)"/>
    <rect class="cls-5" x="1477.52" y="1073.08" width="35.54" height="319.06" transform="translate(2727.91 -262.68) rotate(90)"/>
    <rect class="cls-5" x="1477.52" y="913.94" width="35.54" height="319.06" transform="translate(2568.76 -421.82) rotate(90)"/>
    <rect class="cls-5" x="1420.36" y="1230.3" width="35.54" height="197.38"/>
    <rect class="cls-5" x="1527.74" y="1057.25" width="35.54" height="189.66"/>
    <rect class="cls-5" x="1477.52" y="754.8" width="35.54" height="319.06" transform="translate(2409.62 -580.97) rotate(90)"/>
  </g>
  <g>
    <path class="cls-6" d="M1456.4,1274.12l-57.16,99h144.92l-57.16-99A17.67,17.67,0,0,0,1456.4,1274.12Z" transform="translate(0 0)"/>
    <path class="cls-6" d="M1375.16,1305.9l-38.81,67.23h98.4l-38.81-67.23A12,12,0,0,0,1375.16,1305.9Z" transform="translate(0 0)"/>
  </g>
  <g>
    <path class="cls-6" d="M2352.79,1256.85l67.93,117.66H2248.49l67.94-117.66A21,21,0,0,1,2352.79,1256.85Z" transform="translate(0 0)"/>
    <path class="cls-6" d="M2449.33,1294.61l46.13,79.9H2378.52l46.12-79.9A14.26,14.26,0,0,1,2449.33,1294.61Z" transform="translate(0 0)"/>
  </g>
  <g>
    <g>
      <polygon class="cls-7" points="427.49 1231.63 442.92 1204.88 486.12 1204.88 486.12 1213.12 455.26 1213.12 455.26 1231.63 455.26 1303.63 224.84 1303.63 224.84 1231.63 427.49 1231.63"/>
      <circle class="cls-8" cx="484.06" cy="1345.47" r="26.74" transform="translate(-299.45 149.34) rotate(-13.44)"/>
      <circle class="cls-9" cx="484.06" cy="1345.47" r="18.23"/>
      <circle class="cls-8" cx="484.06" cy="1345.47" r="8.51"/>
      <circle class="cls-9" cx="484.06" cy="1345.47" r="6.08"/>
      <path class="cls-7" d="M461.43,1233v87.08h9a28.78,28.78,0,0,1,42.4,25.37,29.39,29.39,0,0,1-1,7.55h57.61a9.25,9.25,0,0,0,9.26-9.26v-58.63c0-.7-.05-1.38-.11-2.06a27.61,27.61,0,0,0-2.67-9.85l-22.06-45.69-.22-.48a13.51,13.51,0,0,0-.85-1.48,13.66,13.66,0,0,0-11.5-6.27H475.15A13.7,13.7,0,0,0,461.43,1233Z" transform="translate(0 0)"/>
      <circle class="cls-8" cx="327.71" cy="1345.47" r="26.74" transform="translate(-855.4 625.8) rotate(-45)"/>
      <circle class="cls-9" cx="327.71" cy="1345.47" r="18.23"/>
      <circle class="cls-8" cx="327.71" cy="1345.47" r="8.51"/>
      <circle class="cls-9" cx="327.71" cy="1345.47" r="6.08"/>
      <path class="cls-8" d="M459.37,1309.81v12.34h7.81a28.77,28.77,0,0,0-11.92,23.32,28.48,28.48,0,0,0,1,7.54H355.47a27.42,27.42,0,0,0,0-15c-3.63-12.73-15.51-21.81-28.74-21.37A28.72,28.72,0,0,0,299.94,1353h-10.3a27.42,27.42,0,0,0,0-15c-3.62-12.73-15.5-21.81-28.73-21.37a28.84,28.84,0,0,0-27.83,28.79,28.48,28.48,0,0,0,1,7.54h-3.27a6,6,0,0,1-6-6v-37.2Z" transform="translate(0 0)"/>
      <circle class="cls-8" cx="261.88" cy="1345.47" r="26.74" transform="translate(-494.95 202.63) rotate(-22.5)"/>
      <circle class="cls-9" cx="261.88" cy="1345.47" r="18.23"/>
      <circle class="cls-8" cx="261.88" cy="1345.47" r="8.51"/>
      <circle class="cls-9" cx="261.88" cy="1345.47" r="6.08"/>
      <g>
        <path class="cls-9" d="M403.83,1254.26v49.37H424.4v-49.37a10.29,10.29,0,1,0-20.57,0Z" transform="translate(0 0)"/>
        <path class="cls-9" d="M391.48,1303.63v-49.37a10.29,10.29,0,1,0-20.57,0v49.37Z" transform="translate(0 0)"/>
        <path class="cls-9" d="M338,1254.26v49.37h20.58v-49.37a10.29,10.29,0,0,0-20.58,0Z" transform="translate(0 0)"/>
        <path class="cls-9" d="M305.08,1254.26v49.37h20.57v-49.37a10.29,10.29,0,1,0-20.57,0Z" transform="translate(0 0)"/>
        <path class="cls-9" d="M272.16,1254.26v49.37h20.57v-49.37a10.29,10.29,0,1,0-20.57,0Z" transform="translate(0 0)"/>
        <path class="cls-9" d="M239.25,1254.26v49.37h20.57v-49.37a10.29,10.29,0,1,0-20.57,0Z" transform="translate(0 0)"/>
      </g>
      <path class="cls-8" d="M405.88,1246h16.46a0,0,0,0,1,0,0v49.37a8.23,8.23,0,0,1-8.23,8.23h0a8.23,8.23,0,0,1-8.23-8.23V1246a0,0,0,0,1,0,0Z" transform="translate(828.23 2549.67) rotate(180)"/>
      <path class="cls-8" d="M373,1303.63h16.46v-49.37a8.24,8.24,0,0,0-8.23-8.23h0a8.23,8.23,0,0,0-8.23,8.23Z" transform="translate(0 0)"/>
      <path class="cls-8" d="M340.05,1303.63h16.46v-49.37a8.23,8.23,0,0,0-8.23-8.23h0a8.24,8.24,0,0,0-8.23,8.23Z" transform="translate(0 0)"/>
      <path class="cls-8" d="M307.14,1246h16.46a0,0,0,0,1,0,0v49.37a8.23,8.23,0,0,1-8.23,8.23h0a8.23,8.23,0,0,1-8.23-8.23V1246A0,0,0,0,1,307.14,1246Z" transform="translate(630.73 2549.67) rotate(180)"/>
      <path class="cls-8" d="M274.22,1303.63h16.46v-49.37a8.24,8.24,0,0,0-8.23-8.23h0a8.23,8.23,0,0,0-8.23,8.23Z" transform="translate(0 0)"/>
      <path class="cls-8" d="M241.3,1246h16.46a0,0,0,0,1,0,0v49.37a8.23,8.23,0,0,1-8.23,8.23h0a8.23,8.23,0,0,1-8.23-8.23V1246A0,0,0,0,1,241.3,1246Z" transform="translate(499.06 2549.67) rotate(180)"/>
    </g>
    <g>
      <path class="cls-10" d="M548.79,1283.06a5.46,5.46,0,0,0,5-7.66l-19.63-44.62a5.48,5.48,0,0,0-5-3.26H483.35a5.47,5.47,0,0,0-5.46,5.46v44.62a5.47,5.47,0,0,0,5.46,5.46Z" transform="translate(0 0)"/>
      <path class="cls-11" d="M532.27,1231.61l19.64,44.62a3.4,3.4,0,0,1-3.12,4.77H483.35a3.4,3.4,0,0,1-3.4-3.4V1233a3.41,3.41,0,0,1,3.4-3.41h45.81A3.39,3.39,0,0,1,532.27,1231.61Z" transform="translate(0 0)"/>
    </g>
    <path class="cls-10" d="M548.41,1233.85l21.19,47.73a6,6,0,0,0,5.47,3.54h3.63c0-.7-.05-1.38-.11-2.06a27.61,27.61,0,0,0-2.67-9.85l-22.06-45.69-.22-.48a13.51,13.51,0,0,0-.85-1.48,5.93,5.93,0,0,0-4.38,8.29Z" transform="translate(0 0)"/>
    <path class="cls-11" d="M550.28,1233l21.21,47.72a3.92,3.92,0,0,0,3.58,2.32h3.52a27.61,27.61,0,0,0-2.67-9.85l-22.06-45.69h0A3.91,3.91,0,0,0,550.28,1233Z" transform="translate(0 0)"/>
    <path class="cls-8" d="M575.22,1328.32h3.6a4,4,0,0,1,4,4V1349a4,4,0,0,1-4,4h-8.49a4,4,0,0,1-4-4v-11.83A8.87,8.87,0,0,1,575.22,1328.32Z" transform="translate(1149.16 2681.33) rotate(180)"/>
    <path class="cls-8" d="M579.64,1316h1.76a1.41,1.41,0,0,1,1.41,1.41v7.46a1.41,1.41,0,0,1-1.41,1.41h-1.76a3,3,0,0,1-3-3V1319A3,3,0,0,1,579.64,1316Z" transform="translate(1159.45 2642.24) rotate(180)"/>
    <rect class="cls-8" x="479.95" y="1289.23" width="18.52" height="6.17" rx="2.66" transform="translate(978.41 2584.64) rotate(180)"/>
    <path class="cls-9" d="M512.86,1329.35h47.23a5.23,5.23,0,0,0,5.23-5.23v-37a11.42,11.42,0,0,0-.84-4.32l-21.86-53.66a1,1,0,0,0-1.91.78l21.86,53.66a9.35,9.35,0,0,1,.7,3.54v37a3.18,3.18,0,0,1-3.18,3.17H512.86a1,1,0,0,0,0,2.06Z" transform="translate(0 0)"/>
  </g>
  <g>
    <path class="cls-7" d="M2223.46,1320.55l-13.92-60.3a11.83,11.83,0,0,0-11.52-9.17h-61.85L2124,1211.47a9.51,9.51,0,0,0-9.08-6.7h-58.3a9.5,9.5,0,0,0-9.5,9.5v106.28Z" transform="translate(0 0)"/>
    <g>
      <path class="cls-9" d="M2169.48,1264.26h20.67a2.13,2.13,0,0,0,2.13-2.13h0a2.13,2.13,0,0,0-2.13-2.14h-20.67a2.13,2.13,0,0,0-2.13,2.14h0A2.13,2.13,0,0,0,2169.48,1264.26Z" transform="translate(0 0)"/>
      <path class="cls-9" d="M2169.48,1270h20.67a2.13,2.13,0,0,0,2.13-2.13h0a2.13,2.13,0,0,0-2.13-2.14h-20.67a2.13,2.13,0,0,0-2.13,2.14h0A2.13,2.13,0,0,0,2169.48,1270Z" transform="translate(0 0)"/>
      <path class="cls-9" d="M2169.48,1275.66h20.67a2.13,2.13,0,0,0,2.13-2.13h0a2.13,2.13,0,0,0-2.13-2.14h-20.67a2.13,2.13,0,0,0-2.13,2.14h0A2.13,2.13,0,0,0,2169.48,1275.66Z" transform="translate(0 0)"/>
      <path class="cls-9" d="M2169.48,1281.36h20.67a2.13,2.13,0,0,0,2.13-2.13h0a2.13,2.13,0,0,0-2.13-2.14h-20.67a2.13,2.13,0,0,0-2.13,2.14h0A2.13,2.13,0,0,0,2169.48,1281.36Z" transform="translate(0 0)"/>
    </g>
    <path class="cls-7" d="M2177.14,1257.36H2183v-26.7c0-9.64,2.58-12.67,3.58-13a.94.94,0,0,1-.25,0l-.83-5.78c-1.39.2-8.35,2-8.35,18.75Z" transform="translate(0 0)"/>
    <path class="cls-9" d="M2136.71,1304.52l-22.64-85.33a7.43,7.43,0,0,0-7.17-5.52h-38.12a7.43,7.43,0,0,0-7.42,7.43v83.42Z" transform="translate(0 0)"/>
    <path class="cls-11" d="M2112.35,1219.65l22,83.09h-71.25V1221.1a5.64,5.64,0,0,1,5.64-5.64h38.12A5.65,5.65,0,0,1,2112.35,1219.65Z" transform="translate(0 0)"/>
    <g>
      <path class="cls-8" d="M2052.45,1322.33h165.66a25,25,0,0,1,23,15.3l-74.39-6.37c-.33,0-.67,0-1,0a11.65,11.65,0,0,0-11.52,10.59,11.58,11.58,0,0,0,10.55,12.53l74.35,6.37a24.9,24.9,0,0,1-21,11.51H2052.45a24.94,24.94,0,1,1,0-49.88Z" transform="translate(0 0)"/>
      <g>
        <g>
          <circle class="cls-9" cx="2052.45" cy="1347.27" r="17.81" transform="translate(-351.52 1845.91) rotate(-45)"/>
          <circle class="cls-8" cx="2052.45" cy="1347.27" r="16.03" transform="translate(-254.64 507.6) rotate(-13.28)"/>
        </g>
        <g>
          <circle class="cls-9" cx="2218.11" cy="1347.27" r="17.81"/>
          <circle class="cls-8" cx="2218.11" cy="1347.27" r="16.03" transform="translate(-187.17 372.7) rotate(-9.22)"/>
        </g>
      </g>
      <path class="cls-9" d="M2159.33,1356.77a8.91,8.91,0,1,0,0-17.81H2066.7a8.91,8.91,0,0,0,0,17.81Z" transform="translate(0 0)"/>
      <path class="cls-8" d="M2274.89,1352.15a11.58,11.58,0,0,0-10.54-12.53l-1.7-.14v-35h19.59l5.34,49.88,32.07,17.81h-48.1l-7.9-9.49A11.63,11.63,0,0,0,2274.89,1352.15Z" transform="translate(0 0)"/>
      <path class="cls-8" d="M2066.7,1340.74h87.65c-.06.35-.11.7-.14,1.06a11.55,11.55,0,0,0,8.68,12.2,7,7,0,0,1-3.56,1H2066.7a7.13,7.13,0,0,1,0-14.25Z" transform="translate(0 0)"/>
      <path class="cls-8" d="M2164.91,1352.55l97.61,8.37a9.8,9.8,0,0,0,10.6-8.93h0a9.79,9.79,0,0,0-8.93-10.59l-97.61-8.37A9.8,9.8,0,0,0,2156,1342h0A9.8,9.8,0,0,0,2164.91,1352.55Z" transform="translate(0 0)"/>
    </g>
  </g>
  <g>
    <polygon class="cls-7" points="1782.8 1169.96 1727.7 1185.11 1723.41 1186.29 1668.31 1201.44 1642.89 1238.07 1651.98 1271.14 1652.04 1271.13 1692.54 1289.58 1747.64 1274.43 1751.93 1273.25 1807.04 1258.1 1832.41 1221.54 1832.47 1221.52 1823.38 1188.45 1782.8 1169.96"/>
    <circle class="cls-8" cx="1601.49" cy="1345.47" r="26.74" transform="translate(-482.32 1526.5) rotate(-45)"/>
    <circle class="cls-9" cx="1601.49" cy="1345.47" r="18.23"/>
    <circle class="cls-8" cx="1601.49" cy="1345.47" r="8.51"/>
    <path class="cls-9" d="M1607.57,1345.47a6.08,6.08,0,1,1-6.08-6.08A6.08,6.08,0,0,1,1607.57,1345.47Z" transform="translate(0 0)"/>
    <path class="cls-7" d="M1624.12,1233v87.08h-9a28.78,28.78,0,0,0-42.4,25.37,29.39,29.39,0,0,0,1,7.55h-57.61a9.24,9.24,0,0,1-9.25-9.26v-58.63c0-.7,0-1.38.1-2.06a27.61,27.61,0,0,1,2.67-9.85l22.06-45.69.22-.48a13.51,13.51,0,0,1,.85-1.48,13.66,13.66,0,0,1,11.5-6.27h66.14A13.7,13.7,0,0,1,1624.12,1233Z" transform="translate(0 0)"/>
    <circle class="cls-8" cx="1757.84" cy="1345.47" r="26.74" transform="translate(44.5 2747.16) rotate(-76.72)"/>
    <circle class="cls-9" cx="1757.84" cy="1345.47" r="18.23"/>
    <circle class="cls-8" cx="1757.84" cy="1345.47" r="8.51"/>
    <circle class="cls-9" cx="1757.84" cy="1345.47" r="6.08"/>
    <circle class="cls-8" cx="1823.68" cy="1345.47" r="26.74" transform="translate(-417.25 1683.61) rotate(-45)"/>
    <circle class="cls-9" cx="1823.68" cy="1345.47" r="18.23"/>
    <circle class="cls-8" cx="1823.68" cy="1345.47" r="8.51"/>
    <circle class="cls-9" cx="1823.68" cy="1345.47" r="6.08"/>
    <g>
      <path class="cls-10" d="M1536.76,1283.06a5.47,5.47,0,0,1-5-7.66l19.64-44.62a5.45,5.45,0,0,1,5-3.26h45.81a5.47,5.47,0,0,1,5.46,5.46v44.62a5.47,5.47,0,0,1-5.46,5.46Z" transform="translate(0 0)"/>
      <path class="cls-11" d="M1553.28,1231.61l-19.64,44.62a3.4,3.4,0,0,0,3.12,4.77h65.44a3.41,3.41,0,0,0,3.41-3.4V1233a3.41,3.41,0,0,0-3.41-3.41h-45.8A3.41,3.41,0,0,0,1553.28,1231.61Z" transform="translate(0 0)"/>
    </g>
    <path class="cls-10" d="M1537.14,1233.85,1516,1281.58a6,6,0,0,1-5.47,3.54h-3.62c0-.7,0-1.38.1-2.06a27.61,27.61,0,0,1,2.67-9.85l22.06-45.69.22-.48a13.51,13.51,0,0,1,.85-1.48,5.93,5.93,0,0,1,4.38,8.29Z" transform="translate(0 0)"/>
    <path class="cls-11" d="M1535.27,1233l-21.21,47.72a3.92,3.92,0,0,1-3.58,2.32H1507a27.61,27.61,0,0,1,2.67-9.85l22.06-45.69h0A3.91,3.91,0,0,1,1535.27,1233Z" transform="translate(0 0)"/>
    <path class="cls-8" d="M1506.73,1328.32h8.49a4,4,0,0,1,4,4V1349a4,4,0,0,1-4,4h-3.6a8.87,8.87,0,0,1-8.87-8.87v-11.83A4,4,0,0,1,1506.73,1328.32Z"/>
    <path class="cls-8" d="M1505.74,1316h1.76a1.41,1.41,0,0,1,1.41,1.41v7.46a1.41,1.41,0,0,1-1.41,1.41h-1.76a3,3,0,0,1-3-3V1319A3,3,0,0,1,1505.74,1316Z"/>
    <rect class="cls-8" x="1587.09" y="1289.23" width="18.52" height="6.17" rx="2.66"/>
    <path class="cls-9" d="M1572.69,1329.35h-47.23a5.23,5.23,0,0,1-5.23-5.23v-37a11.24,11.24,0,0,1,.85-4.32l21.86-53.66a1,1,0,1,1,1.9.78L1523,1283.62a9.34,9.34,0,0,0-.69,3.54v37a3.17,3.17,0,0,0,3.17,3.17h47.23a1,1,0,0,1,0,2.06Z" transform="translate(0 0)"/>
    <path class="cls-8" d="M1652.92,1309.81l-18.51-72h-8.23v84.35h-7.81a28.63,28.63,0,0,1,10.89,30.86h100.82a27.33,27.33,0,0,1,0-15c3.62-12.73,15.5-21.81,28.73-21.37a28.69,28.69,0,0,1,26.79,36.33h10.3a27.42,27.42,0,0,1,0-15c3.63-12.73,15.5-21.81,28.73-21.37a28.84,28.84,0,0,1,27.83,28.79,28.48,28.48,0,0,1-1,7.54h3.27a6,6,0,0,0,6-6v-37.2Z" transform="translate(0 0)"/>
    <path class="cls-8" d="M1880.45,1261.82c-3.85.42-7.27,1-10.28,1.56l-16.77-59.75a4.81,4.81,0,0,0-5.92-3.33l-10.93,3.07a4.8,4.8,0,0,0-3.33,5.92l17.27,61.53.59,2.11a51.4,51.4,0,0,1,9.81-3.83c1.53-.43,3-.78,4.53-1,1.69-.46,3.58-.9,5.7-1.31,2.84-.54,6.07-1,9.73-1.44a1.75,1.75,0,1,0-.4-3.48Z" transform="translate(0 0)"/>
    <polygon class="cls-7" points="1847.07 1275.57 1845.76 1270.8 1837 1238.96 1816.42 1268.62 1689.85 1303.41 1657 1288.45 1662.31 1307.75 1730 1307.75 1847.07 1275.57"/>
    <polygon class="cls-7" points="1855.91 1307.75 1847.36 1276.62 1734.15 1307.75 1855.91 1307.75"/>
  </g>
  <g>
    <g>
      <path class="cls-8" d="M1018.61,1300.78h62a0,0,0,0,1,0,0v17a23,23,0,0,1-23,23h-16.07a23,23,0,0,1-23-23v-17A0,0,0,0,1,1018.61,1300.78Z" transform="matrix(-0.18, 0.98, -0.98, -0.18, 2535.51, 521.96)"/>
      <path class="cls-8" d="M1082.85,1355.26l-7.58-10.07,9-49.69-6.77-1.22-11,61,6.77,1.22,8,1.44A1.68,1.68,0,0,0,1082.85,1355.26Z" transform="translate(0 0)"/>
    </g>
    <path class="cls-8" d="M1143.75,1164.35l-50-8.84a2.37,2.37,0,0,0-.92,0,8.16,8.16,0,0,1,0,3,7.87,7.87,0,0,1-1.05,2.76,2.53,2.53,0,0,0,.85.34l50,8.84a2.41,2.41,0,0,0,2.79-2l.23-1.35A2.39,2.39,0,0,0,1143.75,1164.35Z" transform="translate(0 0)"/>
    <path class="cls-8" d="M1092.35,1163.61a4.55,4.55,0,0,1-1.6-.62l-.19-.12a8.23,8.23,0,1,1,1.65-9.3l.22,0a4.48,4.48,0,0,1,1.71,0l7.79,1.38,1.8-10.15-34.43-6.12-22,123.7,2.8,23.34,27.7,4.92L1100.13,1165Z" transform="translate(0 0)"/>
    <path class="cls-8" d="M1090.88,1158.13a6.17,6.17,0,1,1-5-7.15A6.17,6.17,0,0,1,1090.88,1158.13Z" transform="translate(0 0)"/>
    <path class="cls-8" d="M1195.43,1242.31l-5.72-71a2.47,2.47,0,0,0-.28-.87,8.43,8.43,0,0,1-2.83.88,8.28,8.28,0,0,1-2.95-.23,2.55,2.55,0,0,0-.08.92l5.72,71a2.41,2.41,0,0,0,2.66,2.12l1.36-.16A2.41,2.41,0,0,0,1195.43,1242.31Z" transform="translate(0 0)"/>
    <path class="cls-8" d="M1251.47,1210.46l-56.15-65.73a36.62,36.62,0,0,0-45.71-8.19l-36.4,20.32,30.9,5.47a4.45,4.45,0,0,1,3.61,5.16l-.24,1.35a4.47,4.47,0,0,1-5.16,3.62l-40.16-7.11-6.51,36.65,46.9-26.19a36.62,36.62,0,0,1,39.46,2.42l-.48-6a4.52,4.52,0,0,1,.14-1.71l.07-.21a8.16,8.16,0,0,1-4.24-6.25,8.23,8.23,0,1,1,16.35-1.86,8.16,8.16,0,0,1-2.73,7l.11.2a4.38,4.38,0,0,1,.52,1.63l1.51,18.75,17.62,20.63,8.8,10.28,1.75,2.06,23.49,27.51,7.62-6.5,2-1.77,12.35-10.54v-2.92Z" transform="translate(0 0)"/>
    <path class="cls-8" d="M1186.37,1169.27a6.17,6.17,0,1,1,5.44-6.83A6.17,6.17,0,0,1,1186.37,1169.27Z" transform="translate(0 0)"/>
    <g>
      <path class="cls-7" d="M1336.88,1269.34v28.3a13.64,13.64,0,0,1-13.64,13.62H1202.38a13.64,13.64,0,0,1-13.62-13.62v-73.56a13.64,13.64,0,0,1,13.62-13.62h50.92a13.64,13.64,0,0,1,13.64,13.62v31.64h56.3A13.64,13.64,0,0,1,1336.88,1269.34Z" transform="translate(0 0)"/>
      <g>
        <path class="cls-9" d="M1320.41,1266.47h-20.67a2.13,2.13,0,0,1-2.13-2.14h0a2.13,2.13,0,0,1,2.13-2.14h20.67a2.14,2.14,0,0,1,2.14,2.14h0A2.14,2.14,0,0,1,1320.41,1266.47Z" transform="translate(0 0)"/>
        <path class="cls-9" d="M1320.41,1272.17h-20.67a2.13,2.13,0,0,1-2.13-2.14h0a2.13,2.13,0,0,1,2.13-2.14h20.67a2.14,2.14,0,0,1,2.14,2.14h0A2.14,2.14,0,0,1,1320.41,1272.17Z" transform="translate(0 0)"/>
        <path class="cls-9" d="M1320.41,1277.87h-20.67a2.13,2.13,0,0,1-2.13-2.14h0a2.13,2.13,0,0,1,2.13-2.14h20.67a2.14,2.14,0,0,1,2.14,2.14h0A2.14,2.14,0,0,1,1320.41,1277.87Z" transform="translate(0 0)"/>
        <rect class="cls-9" x="1297.61" y="1279.29" width="24.94" height="4.28" rx="2.14"/>
      </g>
      <path class="cls-7" d="M1303.33,1259.57h5.84v-26.71c0-9.64,2.58-12.66,3.58-13a.57.57,0,0,1-.25.05l-.82-5.78c-1.4.2-8.35,2-8.35,18.75Z" transform="translate(0 0)"/>
      <rect class="cls-10" x="1199.05" y="1220.74" width="55.55" height="76.12" rx="7.33"/>
      <rect class="cls-11" x="1190.82" y="1233.09" width="72" height="51.43" rx="5.27" transform="translate(2485.62 31.98) rotate(90)"/>
    </g>
    <path class="cls-8" d="M1232.22,1313.32h61.2a3.34,3.34,0,0,1,3.34,3.34v1.54a7.46,7.46,0,0,1-7.46,7.46h-53a7.46,7.46,0,0,1-7.46-7.46v-1.54A3.34,3.34,0,0,1,1232.22,1313.32Z"/>
    <g>
      <g>
        <rect class="cls-8" x="1171.27" y="1326.95" width="181.04" height="45.26" rx="22.63"/>
        <g>
          <g>
            <circle class="cls-9" cx="1192.87" cy="1349.58" r="16.46"/>
            <circle class="cls-8" cx="1192.87" cy="1349.58" r="12.8"/>
          </g>
          <g>
            <circle class="cls-9" cx="1330.71" cy="1349.58" r="16.46"/>
            <circle class="cls-8" cx="1330.71" cy="1349.58" r="12.8"/>
          </g>
        </g>
      </g>
      <g>
        <path class="cls-9" d="M1192.76,1356.78a7.2,7.2,0,0,1,0-14.4h138.07a7.2,7.2,0,1,1,0,14.4Z" transform="translate(0 0)"/>
        <path class="cls-8" d="M1330.83,1355.18H1192.76a5.6,5.6,0,0,1-5.6-5.6h0a5.6,5.6,0,0,1,5.6-5.6h138.07a5.6,5.6,0,0,1,5.6,5.6h0A5.6,5.6,0,0,1,1330.83,1355.18Z" transform="translate(0 0)"/>
      </g>
    </g>
  </g>
  <g>
    <g>
      <g>
        <path class="cls-12" d="M331.78,675.33a2.33,2.33,0,0,0,.61-1.6h-4.94c0-1.72,0-1.79,23-17.93,13.24-9.3,32.73-22.82,57.89-40.21C450.74,586.32,509.84,545.71,584,494.9c126.29-86.52,254.22-173.81,255.5-174.68l1.33-.91,455.89,286-2.63,4.18L841,325.21C667.23,443.75,339.08,668.22,331.78,675.33Z" transform="translate(0 0)"/>
        <rect class="cls-12" x="1175.43" y="102.82" width="4.94" height="729.66" transform="translate(294.74 1376.59) rotate(-67.48)"/>
      </g>
      <g>
        <rect class="cls-12" x="834.9" y="669.85" width="12.7" height="117.16" transform="translate(-268.68 808.21) rotate(-45)"/>
        <rect class="cls-12" x="834.9" y="669.85" width="12.7" height="117.16" transform="translate(921.03 1838.36) rotate(-135)"/>
        <g>
          <rect class="cls-12" x="834.9" y="649.39" width="12.7" height="71.99" transform="translate(155.87 1526.63) rotate(-90)"/>
          <rect class="cls-12" x="834.9" y="735.49" width="12.7" height="71.99" transform="translate(69.77 1612.73) rotate(-90)"/>
        </g>
      </g>
      <g>
        <rect class="cls-12" x="834.9" y="755.96" width="12.7" height="117.16" transform="translate(-329.57 833.43) rotate(-45)"/>
        <rect class="cls-12" x="834.9" y="755.96" width="12.7" height="117.16" transform="translate(860.14 1985.35) rotate(-135)"/>
        <g>
          <rect class="cls-12" x="834.9" y="735.49" width="12.7" height="71.99" transform="translate(69.77 1612.73) rotate(-90)"/>
          <rect class="cls-12" x="834.9" y="821.59" width="12.7" height="71.99" transform="translate(-16.34 1698.84) rotate(-90)"/>
        </g>
      </g>
      <g>
        <rect class="cls-12" x="834.9" y="842.06" width="12.7" height="117.16" transform="translate(-390.45 858.65) rotate(-45)"/>
        <rect class="cls-12" x="834.9" y="842.06" width="12.7" height="117.16" transform="translate(799.26 2132.34) rotate(-135)"/>
        <g>
          <rect class="cls-12" x="834.9" y="821.59" width="12.7" height="71.99" transform="translate(-16.34 1698.84) rotate(-90)"/>
          <rect class="cls-12" x="834.9" y="907.7" width="12.7" height="71.99" transform="translate(-102.44 1784.94) rotate(-90)"/>
        </g>
      </g>
      <g>
        <rect class="cls-12" x="834.9" y="928.17" width="12.7" height="117.16" transform="translate(-451.34 883.87) rotate(-45)"/>
        <rect class="cls-12" x="834.9" y="928.17" width="12.7" height="117.16" transform="translate(738.37 2279.33) rotate(-135)"/>
        <g>
          <rect class="cls-12" x="834.9" y="907.7" width="12.7" height="71.99" transform="translate(-102.44 1784.94) rotate(-90)"/>
          <rect class="cls-12" x="834.9" y="993.8" width="12.7" height="71.99" transform="translate(-188.55 1871.05) rotate(-90)"/>
        </g>
      </g>
      <g>
        <rect class="cls-12" x="834.9" y="1014.27" width="12.7" height="117.16" transform="translate(-512.22 909.09) rotate(-45)"/>
        <rect class="cls-12" x="834.9" y="1014.27" width="12.7" height="117.16" transform="translate(677.49 2426.32) rotate(-135)"/>
        <g>
          <rect class="cls-12" x="834.9" y="993.8" width="12.7" height="71.99" transform="translate(-188.55 1871.05) rotate(-90)"/>
          <rect class="cls-12" x="834.9" y="1079.91" width="12.7" height="71.99" transform="translate(-274.65 1957.15) rotate(-90)"/>
        </g>
      </g>
      <g>
        <rect class="cls-12" x="834.9" y="1100.37" width="12.7" height="117.16" transform="translate(-573.11 934.31) rotate(-45)"/>
        <rect class="cls-12" x="834.9" y="1100.37" width="12.7" height="117.16" transform="translate(616.6 2573.31) rotate(-135)"/>
        <g>
          <rect class="cls-12" x="834.9" y="1079.91" width="12.7" height="71.99" transform="translate(-274.65 1957.15) rotate(-90)"/>
          <rect class="cls-12" x="834.9" y="1166.01" width="12.7" height="71.99" transform="translate(-360.76 2043.26) rotate(-90)"/>
        </g>
      </g>
      <g>
        <rect class="cls-12" x="834.9" y="1186.48" width="12.7" height="117.16" transform="translate(-633.99 959.53) rotate(-45)"/>
        <rect class="cls-12" x="834.9" y="1186.48" width="12.7" height="117.16" transform="translate(555.72 2720.3) rotate(-135)"/>
        <g>
          <rect class="cls-12" x="834.9" y="1166.01" width="12.7" height="71.99" transform="translate(-360.76 2043.26) rotate(-90)"/>
          <rect class="cls-12" x="834.9" y="1252.12" width="12.7" height="71.99" transform="translate(-446.86 2129.36) rotate(-90)"/>
        </g>
      </g>
      <rect class="cls-8" x="795.38" y="679.03" width="12.7" height="652.13"/>
      <g>
        <polygon class="cls-8" points="847.79 377.27 841.38 426.54 807.97 683.55 795.38 681.91 834.98 377.27 841.38 328 847.79 377.27"/>
        <polygon class="cls-8" points="887.13 679.8 874.53 681.43 841.38 426.54 834.98 377.27 841.38 328 847.79 377.27 887.13 679.8"/>
      </g>
      <rect class="cls-8" x="874.42" y="679.03" width="12.7" height="652.13"/>
      <g>
        <g>
          <rect class="cls-12" x="1040.48" y="608.44" width="12.7" height="90.26" transform="translate(-155.53 931.66) rotate(-45)"/>
          <polygon class="cls-8" points="1028.39 626.14 1019.41 635.12 964.56 689.97 955.59 680.99 1010.43 626.14 1019.41 617.17 1028.39 626.14"/>
        </g>
        <g>
          <polygon class="cls-12" points="1152.6 626.14 1143.63 635.12 1088.78 689.97 1079.8 680.99 1134.65 626.14 1143.63 617.17 1152.6 626.14"/>
          <rect class="cls-12" x="1164.7" y="608.44" width="12.7" height="90.26" transform="translate(-119.15 1019.49) rotate(-45)"/>
        </g>
        <g>
          <polygon class="cls-12" points="1276.82 626.14 1267.84 635.12 1213 689.97 1204.02 680.99 1258.86 626.14 1267.84 617.17 1276.82 626.14"/>
          <rect class="cls-12" x="1288.92" y="608.44" width="12.7" height="90.26" transform="translate(-82.76 1107.32) rotate(-45)"/>
        </g>
        <g>
          <polygon class="cls-12" points="1401.04 626.14 1392.06 635.12 1337.21 689.97 1328.23 680.99 1383.08 626.14 1392.06 617.17 1401.04 626.14"/>
          <rect class="cls-12" x="1413.13" y="608.44" width="12.7" height="90.26" transform="translate(-46.38 1195.16) rotate(-45)"/>
        </g>
        <g>
          <polygon class="cls-12" points="1525.25 626.14 1516.27 635.12 1461.43 689.97 1452.45 680.99 1507.3 626.14 1516.27 617.17 1525.25 626.14"/>
          <rect class="cls-8" x="1537.35" y="608.44" width="12.7" height="90.26" transform="translate(-10 1282.99) rotate(-45)"/>
        </g>
        <rect class="cls-8" x="1217.78" y="329.67" width="12.7" height="712.13" transform="translate(1909.87 -538.4) rotate(90)"/>
        <rect class="cls-8" x="1261.54" y="374.13" width="12.7" height="497.57" transform="translate(1890.81 -644.97) rotate(90)"/>
      </g>
      <g>
        <g>
          <rect class="cls-12" x="581.36" y="647.22" width="90.26" height="12.7" transform="translate(-278.65 634.42) rotate(-45)"/>
          <polygon class="cls-8" points="644.94 626.14 653.92 635.12 708.76 689.97 717.74 680.99 662.89 626.14 653.92 617.17 644.94 626.14"/>
        </g>
        <g>
          <polygon class="cls-12" points="520.72 626.14 529.7 635.12 584.55 689.97 593.52 680.99 538.68 626.14 529.7 617.17 520.72 626.14"/>
          <rect class="cls-12" x="457.15" y="647.22" width="90.26" height="12.7" transform="translate(-315.03 546.59) rotate(-45)"/>
        </g>
        <g>
          <polygon class="cls-12" points="396.51 626.14 405.49 635.12 460.33 689.97 469.31 680.99 414.46 626.14 405.49 617.17 396.51 626.14"/>
          <rect class="cls-8" x="332.93" y="647.22" width="90.26" height="12.7" transform="translate(-351.41 458.76) rotate(-45)"/>
        </g>
        <rect class="cls-8" x="567.06" y="453.89" width="12.7" height="463.69" transform="translate(1259.14 112.32) rotate(90)"/>
        <rect class="cls-8" x="523.3" y="498.35" width="12.7" height="249.14" transform="translate(1152.57 93.27) rotate(90)"/>
      </g>
      <g>
        <path class="cls-7" d="M935.75,691.74l-13.92-60.31a11.82,11.82,0,0,0-11.52-9.16H848.47l-12.19-39.61A9.5,9.5,0,0,0,827.2,576H768.9a9.5,9.5,0,0,0-9.5,9.5V691.74Z" transform="translate(0 0)"/>
        <g>
          <path class="cls-9" d="M881.78,635.45h20.66a2.14,2.14,0,0,0,2.14-2.14h0a2.14,2.14,0,0,0-2.14-2.14H881.78a2.14,2.14,0,0,0-2.14,2.14h0A2.14,2.14,0,0,0,881.78,635.45Z" transform="translate(0 0)"/>
          <path class="cls-9" d="M881.78,641.15h20.66a2.14,2.14,0,0,0,2.14-2.14h0a2.14,2.14,0,0,0-2.14-2.14H881.78a2.14,2.14,0,0,0-2.14,2.14h0A2.14,2.14,0,0,0,881.78,641.15Z" transform="translate(0 0)"/>
          <path class="cls-9" d="M881.78,646.85h20.66a2.14,2.14,0,0,0,2.14-2.14h0a2.14,2.14,0,0,0-2.14-2.14H881.78a2.14,2.14,0,0,0-2.14,2.14h0A2.14,2.14,0,0,0,881.78,646.85Z" transform="translate(0 0)"/>
          <path class="cls-9" d="M881.78,652.55h20.66a2.14,2.14,0,0,0,2.14-2.14h0a2.14,2.14,0,0,0-2.14-2.14H881.78a2.14,2.14,0,0,0-2.14,2.14h0A2.14,2.14,0,0,0,881.78,652.55Z" transform="translate(0 0)"/>
        </g>
        <path class="cls-9" d="M849,675.7l-22.64-85.32a7.43,7.43,0,0,0-7.17-5.52H781.07a7.43,7.43,0,0,0-7.42,7.42V675.7Z" transform="translate(0 0)"/>
        <path class="cls-11" d="M824.64,590.83l22,83.09H775.43V592.28a5.64,5.64,0,0,1,5.64-5.64h38.12A5.64,5.64,0,0,1,824.64,590.83Z" transform="translate(0 0)"/>
      </g>
      <g>
        <g>
          <g>
            <rect class="cls-12" x="1383.11" y="710.79" width="4.94" height="25.41"/>
            <rect class="cls-12" x="1400.05" y="710.79" width="4.94" height="25.41"/>
            <rect class="cls-12" x="1416.99" y="710.79" width="4.94" height="25.41"/>
          </g>
          <g>
            <g>
              <path class="cls-8" d="M1410,880.77a1.09,1.09,0,0,0-1.08,1.16,5.25,5.25,0,0,1-1.78,4.7c-5.38,4.1-11.33.23-11.21-4.94a6.69,6.69,0,0,1,6.78-6.33h0a.8.8,0,0,0,.8-.8V862.37h-2.17v10.22a.81.81,0,0,1-.66.79,8.66,8.66,0,0,0-6.9,9,8.66,8.66,0,0,0,17.3-.48A1.08,1.08,0,0,0,1410,880.77Z" transform="translate(0 0)"/>
              <g>
                <g>
                  <g>
                    <line class="cls-8" x1="1402.41" y1="803.17" x2="1402.41" y2="860.81"/>
                    <rect class="cls-8" x="1400.25" y="803.17" width="4.32" height="57.64"/>
                  </g>
                  <g>
                    <g>
                      <line class="cls-8" x1="1389.86" y1="803.35" x2="1396.24" y2="860.63"/>
                      <rect class="cls-8" x="1390.89" y="803.17" width="4.32" height="57.64" transform="translate(-83.55 159.35) rotate(-6.36)"/>
                    </g>
                    <g>
                      <line class="cls-8" x1="1414.97" y1="803.35" x2="1408.59" y2="860.63"/>
                      <rect class="cls-8" x="1382.96" y="829.83" width="57.64" height="4.32" transform="translate(428.56 2142.95) rotate(-83.64)"/>
                    </g>
                  </g>
                </g>
                <path class="cls-7" d="M1399.41,855h6a7.08,7.08,0,0,1,7.08,7.08v4.44a0,0,0,0,1,0,0h-20.17a0,0,0,0,1,0,0v-4.44A7.08,7.08,0,0,1,1399.41,855Z"/>
              </g>
            </g>
            <path class="cls-7" d="M1418.13,809.6h-31.22c-4.13,0-7.56-2.49-7.85-5.7l-5.94-64.67c-.32-3.55,3.29-6.56,7.86-6.56h43.08c4.57,0,8.18,3,7.85,6.56L1426,803.9C1425.68,807.11,1422.26,809.6,1418.13,809.6Z" transform="translate(0 0)"/>
          </g>
        </g>
        <rect class="cls-7" x="1360.17" y="692.44" width="84.69" height="19.76"/>
      </g>
      <rect class="cls-7" x="452.37" y="628.92" width="110.1" height="62.81"/>
      <g>
        <rect class="cls-5" x="452.37" y="691.73" width="27.53" height="62.81"/>
        <rect class="cls-13" x="436.84" y="711.49" width="58.58" height="23.29" transform="translate(1189.27 257.01) rotate(90)"/>
      </g>
      <g>
        <rect class="cls-5" x="479.89" y="691.73" width="27.53" height="62.81"/>
        <rect class="cls-13" x="464.37" y="711.49" width="58.58" height="23.29" transform="translate(1216.8 229.48) rotate(90)"/>
      </g>
      <g>
        <rect class="cls-5" x="507.42" y="691.73" width="27.53" height="62.81"/>
        <rect class="cls-13" x="491.89" y="711.49" width="58.58" height="23.29" transform="translate(1244.32 201.96) rotate(90)"/>
      </g>
      <g>
        <rect class="cls-5" x="534.94" y="691.73" width="27.53" height="62.81"/>
        <rect class="cls-13" x="519.42" y="711.49" width="58.58" height="23.29" transform="translate(1271.85 174.43) rotate(90)"/>
      </g>
      <g>
        <circle class="cls-12" cx="341.56" cy="685.38" r="26.11" transform="translate(-384.59 442.26) rotate(-45)"/>
        <circle class="cls-7" cx="341.56" cy="685.38" r="23.55" transform="translate(-384.59 442.26) rotate(-45)"/>
      </g>
      <g>
        <circle class="cls-12" cx="841.25" cy="340.96" r="26.11" transform="translate(314.16 1079.97) rotate(-76.56)"/>
        <circle class="cls-7" cx="841.25" cy="340.96" r="23.55" transform="translate(314.35 1080.11) rotate(-76.58)"/>
      </g>
      <g>
        <circle class="cls-12" cx="1285.18" cy="623.27" r="26.11"/>
        <circle class="cls-7" cx="1285.18" cy="623.27" r="23.55"/>
      </g>
      <g>
        <circle class="cls-12" cx="1507.5" cy="623.27" r="26.11"/>
        <circle class="cls-7" cx="1507.5" cy="623.27" r="23.55"/>
      </g>
    </g>
    <rect class="cls-12" x="662.11" y="1307" width="358.64" height="65.21"/>
  </g>
  <rect class="cls-3" y="1371.88" width="2508" height="226.97"/>
  <g>
    <path class="cls-14" d="M2425.34,1382.34h-31.55a3.33,3.33,0,0,1-3.22-4.15l5.16-20.16,3.07-12,7.55-29.54a3.32,3.32,0,0,1,6.43,0l7.55,29.54,3.07,12,5.16,20.16A3.33,3.33,0,0,1,2425.34,1382.34Z" transform="translate(0 0)"/>
    <polygon class="cls-9" points="2423.4 1358.03 2395.73 1358.03 2398.8 1345.99 2420.33 1345.99 2423.4 1358.03"/>
    <rect class="cls-15" x="2380.16" y="1376.55" width="58.81" height="6.95" rx="2.91"/>
  </g>
  <g>
    <path class="cls-14" d="M1981.42,1382.34h-31.54a3.33,3.33,0,0,1-3.22-4.15l5.15-20.16,3.08-12,7.54-29.54a3.32,3.32,0,0,1,6.44,0l7.54,29.54,3.08,12,5.15,20.16A3.33,3.33,0,0,1,1981.42,1382.34Z" transform="translate(0 0)"/>
    <polygon class="cls-9" points="1979.48 1358.03 1951.81 1358.03 1954.89 1345.99 1976.41 1345.99 1979.48 1358.03"/>
    <rect class="cls-15" x="1936.24" y="1376.55" width="58.81" height="6.95" rx="2.91"/>
  </g>
  <g>
    <path class="cls-14" d="M164.38,1382.34H132.83a3.33,3.33,0,0,1-3.22-4.15l5.16-20.16,3.07-12,7.54-29.54a3.32,3.32,0,0,1,6.44,0l7.54,29.54,3.08,12,5.15,20.16A3.32,3.32,0,0,1,164.38,1382.34Z" transform="translate(0 0)"/>
    <polygon class="cls-9" points="162.44 1358.03 134.77 1358.03 137.84 1345.99 159.37 1345.99 162.44 1358.03"/>
    <rect class="cls-15" x="119.2" y="1376.55" width="58.81" height="6.95" rx="2.91"/>
  </g>
  <g>
    <path class="cls-14" d="M1857.28,1382.34h-31.55a3.33,3.33,0,0,1-3.22-4.15l5.16-20.16,3.07-12,7.54-29.54a3.32,3.32,0,0,1,6.44,0l7.54,29.54,3.08,12,5.15,20.16A3.32,3.32,0,0,1,1857.28,1382.34Z" transform="translate(0 0)"/>
    <polygon class="cls-9" points="1855.34 1358.03 1827.67 1358.03 1830.74 1345.99 1852.27 1345.99 1855.34 1358.03"/>
    <rect class="cls-15" x="1812.1" y="1376.55" width="58.81" height="6.95" rx="2.91"/>
  </g>
  <g>
    <path class="cls-14" d="M718.64,1382.34H687.1a3.33,3.33,0,0,1-3.22-4.15L689,1358l3.08-12,7.54-29.54a3.32,3.32,0,0,1,6.44,0l7.54,29.54,3.08,12,5.15,20.16A3.33,3.33,0,0,1,718.64,1382.34Z" transform="translate(0 0)"/>
    <polygon class="cls-9" points="716.71 1358.03 689.03 1358.03 692.11 1345.99 713.63 1345.99 716.71 1358.03"/>
    <rect class="cls-15" x="673.46" y="1376.55" width="58.81" height="6.95" rx="2.91"/>
  </g>
</svg>
