<svg xmlns="http://www.w3.org/2000/svg" viewBox="0 0 21.39 18.32">
  <title>Fichier 5</title>
  <g id="Calque_2" data-name="Calque 2">
    <g id="DocumentOfficielNePasModifierSVP">
      <g>
        <path d="M6,4.75v5.68H6a1.63,1.63,0,1,1-3.26,0h0V5.25H0v5.18a4.34,4.34,0,0,0,8.68,0V4.75Z" fill="#fff"/>
        <polygon points="12.65 15.71 12.65 8.13 9.87 8.13 9.87 18.32 16.42 18.32 16.42 15.71 12.65 15.71" fill="#fff"/>
        <path d="M20,9.25a2.53,2.53,0,0,0-1.65-4.48H13.94v9.72h4.62A2.81,2.81,0,0,0,20,9.25ZM17.38,6.89a.76.76,0,0,1,.78.73.74.74,0,0,1-.79.71h-.76V6.89Zm.11,5.24h-.9V10.74h.92a.71.71,0,0,1,.75.69A.72.72,0,0,1,17.49,12.13Z" fill="#fff"/>
        <path d="M10.72,6.69a1.94,1.94,0,1,1,0-3.87,1.89,1.89,0,0,1,1,.29L13.18.7A4.68,4.68,0,0,0,10.72,0a4.76,4.76,0,1,0,4.75,4.76H12.66A1.93,1.93,0,0,1,10.72,6.69Z" fill="#fff"/>
      </g>
    </g>
  </g>
</svg>
