<svg xmlns="http://www.w3.org/2000/svg" viewBox="0 0 106.96 112.38"><defs><style>.cls-1{fill:#fff;}</style></defs><title>Fichier 1</title><g id="Calque_2" data-name="Calque 2"><g id="DocumentOfficielNePasModifierSVP"><path class="cls-1" d="M47.82,76.06A19.55,19.55,0,1,1,67.36,56.52,19.57,19.57,0,0,1,47.82,76.06Zm0-37.57a18,18,0,1,0,18,18,18,18,0,0,0-18-18Z"/><path class="cls-1" d="M47.82,79A22.46,22.46,0,1,1,70.28,56.52,22.48,22.48,0,0,1,47.82,79Zm0-44.11A21.65,21.65,0,1,0,69.47,56.52,21.68,21.68,0,0,0,47.82,34.87Z"/><path class="cls-1" d="M47.82,84.9A28.39,28.39,0,1,1,76.21,56.52,28.42,28.42,0,0,1,47.82,84.9Zm0-52.72A24.34,24.34,0,1,0,72.16,56.52,24.37,24.37,0,0,0,47.82,32.18Z"/><path class="cls-1" d="M48.89,87.55A33.58,33.58,0,1,1,82.46,54,33.62,33.62,0,0,1,48.89,87.55Zm0-65.64A32.07,32.07,0,1,0,80.94,54a32.11,32.11,0,0,0-32-32.07Z"/><path class="cls-1" d="M49.34,90A36.44,36.44,0,1,1,85.77,53.57,36.49,36.49,0,0,1,49.34,90Zm0-71.35A34.92,34.92,0,1,0,84.25,53.57,35,35,0,0,0,49.34,18.66Z"/><path class="cls-1" d="M44.71,99.91A44.7,44.7,0,1,1,89.4,55.21a44.75,44.75,0,0,1-44.69,44.7Zm0-87.38A42.68,42.68,0,1,0,87.38,55.21,42.74,42.74,0,0,0,44.71,12.53Z"/><path class="cls-1" d="M52.68,112.38A44.46,44.46,0,1,1,97.14,67.92a44.51,44.51,0,0,1-44.46,44.46Zm0-88.11A43.65,43.65,0,1,0,96.33,67.92,43.71,43.71,0,0,0,52.68,24.27Z"/><path class="cls-1" d="M56.28,99.33C28.34,99.33,5.6,77.05,5.6,49.66S28.34,0,56.28,0,107,22.28,107,49.66,84.22,99.33,56.28,99.33Zm0-98.52C28.78.81,6.41,22.72,6.41,49.66S28.78,98.52,56.28,98.52s49.87-21.92,49.87-48.86S83.78.81,56.28.81Z"/><path class="cls-1" d="M41.6,50.73v7h0a2,2,0,0,1-4,0h0V51.35H34.2v6.42a5.38,5.38,0,0,0,10.76,0v-7H41.6"/><polyline class="cls-1" points="49.87 64.31 49.87 54.92 46.43 54.92 46.43 67.56 54.55 67.56 54.55 64.31 49.87 64.31"/><path class="cls-1" d="M59,56.31a3.1,3.1,0,0,0,1.12-2.39A3.16,3.16,0,0,0,57,50.75H51.48v12h5.73A3.49,3.49,0,0,0,59,56.31m-3.28-2.93a.94.94,0,0,1,1,.91.92.92,0,0,1-1,.88h-.94V53.38Zm.15,6.5H54.75V58.16h1.14a.86.86,0,0,1,.92.86A.88.88,0,0,1,55.88,59.88Z"/><path class="cls-1" d="M47.48,53.14a2.4,2.4,0,1,1,1.24-4.45l1.82-3a5.83,5.83,0,0,0-3.06-.86,5.89,5.89,0,1,0,5.89,5.89H49.88a2.4,2.4,0,0,1-2.4,2.4"/></g></g></svg>